<?xml version="1.0" standalone="no"?>
<!DOCTYPE svg PUBLIC "-//W3C//DTD SVG 20010904//EN"
 "http://www.w3.org/TR/2001/REC-SVG-20010904/DTD/svg10.dtd">
<svg version="1.0" xmlns="http://www.w3.org/2000/svg"
 width="2597.000000pt" height="2597.000000pt" viewBox="0 0 2597.000000 2597.000000"
 preserveAspectRatio="xMidYMid meet">
<metadata>
Created by potrace 1.11, written by Peter Selinger 2001-2013
</metadata>
<g transform="translate(0.000000,2597.000000) scale(0.100000,-0.100000)"
fill="#000000" stroke="none">
<path d="M11330 25731 c0 -11 -5 -23 -10 -26 -6 -4 -8 -15 -5 -26 4 -10 2 -19
-3 -19 -5 0 -9 -12 -8 -27 0 -16 -5 -27 -11 -26 -6 1 -9 -6 -6 -18 4 -12 0
-25 -8 -30 -12 -8 -12 -11 1 -19 13 -8 12 -10 -3 -10 -10 0 -15 -4 -12 -10 3
-5 3 -16 -2 -22 -4 -7 -8 -24 -9 -36 0 -13 -7 -27 -14 -32 -8 -5 -9 -10 -1
-14 10 -6 -1 -38 -19 -56 -3 -3 -6 -18 -8 -35 -2 -16 -8 -33 -14 -36 -6 -4 -5
-9 3 -12 11 -4 11 -6 1 -6 -7 -1 -10 -5 -7 -11 3 -5 2 -10 -2 -10 -5 0 -9 -14
-9 -31 -1 -17 -8 -35 -15 -40 -7 -4 -10 -11 -6 -15 4 -4 1 -14 -6 -22 -10 -13
-9 -15 3 -8 13 6 13 5 0 -6 -9 -7 -14 -21 -12 -30 2 -10 -1 -18 -6 -18 -6 0
-9 -8 -8 -17 2 -10 -4 -24 -13 -31 -9 -8 -10 -11 -3 -7 6 3 12 1 12 -4 0 -6
-4 -11 -9 -11 -5 0 -8 -13 -7 -29 1 -17 -1 -28 -5 -25 -10 6 -21 -25 -25 -75
-2 -25 -10 -48 -16 -52 -7 -5 -10 -11 -6 -14 3 -4 0 -18 -7 -32 -7 -14 -11
-31 -9 -38 3 -7 0 -16 -5 -20 -6 -3 -9 -11 -6 -16 4 -5 1 -9 -6 -9 -7 0 -9 -3
-6 -7 4 -3 1 -13 -6 -21 -10 -13 -9 -14 1 -8 11 6 11 4 3 -10 -15 -30 -24 -58
-22 -71 1 -7 -3 -13 -8 -13 -6 0 -8 -6 -5 -14 3 -8 1 -17 -5 -20 -6 -4 -7 -14
-4 -23 5 -11 3 -14 -6 -8 -10 6 -11 3 -1 -15 7 -12 8 -20 2 -16 -5 3 -13 -1
-16 -10 -4 -10 -2 -13 7 -8 9 6 9 4 1 -7 -5 -8 -16 -27 -22 -42 -10 -23 -10
-27 0 -21 10 6 11 4 1 -7 -7 -7 -13 -21 -13 -32 0 -10 -5 -15 -10 -12 -7 4 -9
-3 -6 -19 3 -14 0 -26 -5 -26 -5 0 -9 -5 -9 -11 0 -5 6 -7 13 -3 6 4 3 -3 -8
-16 -13 -15 -15 -21 -5 -16 9 5 8 2 -2 -7 -10 -8 -15 -17 -11 -20 3 -4 0 -13
-7 -22 -10 -12 -10 -15 1 -15 11 -1 11 -3 -1 -13 -9 -7 -16 -20 -17 -29 -1
-35 -3 -39 -14 -32 -8 5 -8 1 0 -13 7 -14 7 -23 -1 -31 -11 -11 -16 -26 -20
-64 -1 -10 -6 -18 -11 -18 -5 0 -7 -6 -4 -14 3 -8 -1 -20 -10 -27 -13 -12 -13
-14 4 -20 16 -7 16 -8 1 -8 -11 -1 -15 -6 -12 -16 4 -8 2 -15 -4 -15 -6 0 -9
-11 -8 -25 2 -13 -1 -22 -5 -19 -5 3 -10 -4 -10 -15 -1 -12 -3 -25 -4 -31 -1
-5 -3 -15 -4 -21 0 -5 -5 -8 -10 -5 -4 3 -6 -6 -3 -19 2 -15 0 -25 -7 -25 -6
0 -11 -5 -11 -11 0 -5 6 -7 13 -3 9 6 9 4 1 -7 -5 -8 -16 -27 -22 -42 -10 -23
-10 -27 0 -21 10 6 11 4 1 -7 -7 -7 -13 -21 -13 -32 0 -10 -4 -16 -9 -13 -4 3
-6 -6 -3 -21 3 -17 1 -24 -6 -19 -6 4 -8 -2 -4 -16 4 -16 2 -19 -8 -13 -9 5
-11 4 -6 -4 4 -6 2 -19 -6 -28 -9 -12 -9 -15 0 -9 6 4 12 3 12 -3 0 -5 -5 -11
-11 -13 -6 -2 -11 -16 -11 -31 0 -15 -5 -27 -10 -27 -5 0 -6 -4 -3 -10 3 -5 1
-10 -6 -10 -10 0 -10 -3 -2 -11 9 -9 8 -16 -3 -27 -11 -11 -12 -17 -4 -22 8
-5 7 -9 -4 -13 -9 -4 -13 -13 -10 -22 3 -8 1 -15 -4 -15 -6 0 -9 -9 -7 -20 2
-11 0 -20 -5 -20 -5 0 -7 -7 -4 -15 4 -8 2 -15 -3 -15 -9 0 -13 -13 -14 -52 0
-10 -3 -18 -7 -18 -4 0 -9 -9 -10 -20 -4 -44 -6 -50 -15 -50 -5 0 -7 -7 -4
-15 4 -8 2 -17 -4 -21 -6 -3 -8 -12 -5 -20 3 -7 -2 -20 -10 -29 -12 -11 -12
-15 -2 -15 10 0 10 -2 1 -8 -11 -7 -21 -39 -27 -85 -1 -10 -9 -23 -17 -28 -11
-7 -11 -9 0 -9 10 0 11 -3 2 -13 -6 -8 -8 -17 -4 -20 3 -4 2 -7 -4 -7 -5 0 -9
-13 -8 -30 1 -16 -2 -27 -6 -25 -9 6 -21 -24 -14 -35 3 -4 -2 -13 -10 -20 -7
-6 -11 -18 -8 -26 3 -8 -1 -22 -8 -31 -12 -14 -12 -16 1 -8 13 8 13 6 2 -8 -8
-9 -11 -21 -7 -27 3 -5 2 -10 -4 -10 -6 0 -7 -7 -4 -17 4 -11 3 -14 -5 -9 -8
5 -12 -2 -12 -23 0 -16 -5 -33 -11 -36 -6 -4 -8 -13 -5 -21 3 -8 1 -14 -4 -14
-5 0 -7 -9 -5 -20 2 -11 0 -22 -5 -25 -5 -3 -6 -13 -3 -22 4 -11 3 -14 -6 -9
-8 5 -10 0 -7 -19 4 -21 2 -26 -11 -21 -13 5 -14 4 -3 -9 8 -10 9 -15 2 -15
-6 0 -9 -7 -6 -15 4 -8 1 -15 -4 -15 -6 0 -9 -9 -7 -20 2 -11 -1 -20 -7 -20
-6 0 -5 -7 3 -17 10 -11 10 -14 2 -9 -13 7 -17 -4 -14 -32 1 -8 -6 -21 -16
-29 -10 -8 -11 -11 -3 -7 13 7 13 5 1 -9 -7 -9 -10 -17 -6 -17 4 0 0 -12 -10
-26 -11 -18 -12 -24 -4 -18 12 7 12 5 1 -9 -8 -9 -11 -21 -8 -26 4 -5 2 -12
-4 -16 -6 -4 -8 -10 -5 -15 3 -5 1 -11 -5 -15 -5 -3 -10 -20 -10 -36 0 -18 -4
-28 -10 -24 -14 9 -12 -8 3 -24 10 -11 10 -13 0 -7 -12 6 -18 -5 -14 -26 0 -5
-3 -8 -9 -8 -5 0 -7 -7 -4 -15 4 -8 1 -15 -6 -15 -9 0 -10 -3 -1 -14 9 -10 8
-15 -3 -19 -8 -3 -14 -14 -14 -24 1 -26 -5 -47 -17 -55 -6 -5 -5 -8 3 -8 7 0
10 -5 7 -10 -4 -6 -11 -8 -16 -5 -5 3 -6 -1 -2 -10 3 -10 0 -21 -8 -26 -12 -7
-12 -9 0 -9 10 0 11 -3 2 -13 -6 -8 -8 -17 -4 -20 3 -4 0 -7 -7 -7 -7 0 -10
-3 -7 -7 4 -3 1 -13 -6 -21 -8 -11 -8 -14 0 -9 7 4 10 1 9 -10 -2 -9 -8 -19
-14 -21 -7 -2 -10 -8 -6 -13 3 -5 -1 -9 -8 -9 -9 0 -9 -3 2 -10 12 -7 12 -10
1 -10 -7 0 -11 -6 -7 -15 3 -8 1 -15 -5 -15 -6 0 -7 -4 -4 -10 3 -5 2 -10 -4
-10 -5 0 -8 -11 -6 -25 1 -14 -2 -25 -7 -25 -5 0 -7 -4 -3 -9 3 -5 1 -12 -5
-16 -6 -4 -8 -11 -4 -16 3 -5 0 -16 -6 -24 -7 -8 -10 -22 -6 -30 3 -9 2 -13
-4 -10 -6 4 -10 -7 -10 -25 0 -22 -4 -29 -12 -24 -8 5 -7 0 2 -11 12 -15 12
-17 1 -10 -11 6 -13 3 -9 -13 4 -13 0 -23 -10 -27 -14 -5 -14 -7 -2 -15 11 -7
12 -10 2 -10 -7 0 -11 -4 -7 -9 3 -5 1 -13 -5 -16 -8 -5 -7 -12 2 -23 9 -11 9
-13 1 -9 -7 5 -16 -1 -23 -13 -7 -13 -7 -20 0 -20 5 0 10 -5 10 -11 0 -5 -4
-8 -9 -5 -12 8 -21 -30 -9 -42 6 -6 5 -12 -3 -17 -8 -6 -10 -4 -4 5 6 9 4 11
-4 5 -7 -4 -11 -16 -8 -26 3 -11 -1 -26 -9 -33 -11 -11 -11 -16 -1 -19 9 -4 9
-6 -1 -6 -7 -1 -10 -5 -7 -11 3 -5 0 -10 -7 -10 -9 0 -9 -3 2 -10 10 -6 11
-10 3 -10 -7 0 -13 -11 -13 -25 0 -14 -4 -25 -9 -25 -5 0 -8 -11 -6 -25 1 -17
-3 -25 -14 -25 -9 0 -12 -3 -6 -8 14 -10 18 -35 4 -26 -8 5 -10 -1 -7 -19 3
-15 2 -24 -2 -22 -5 3 -11 -2 -14 -11 -9 -22 -8 -26 5 -18 6 3 4 -5 -5 -19 -9
-13 -15 -31 -14 -38 2 -8 -3 -13 -9 -12 -7 2 -13 -4 -13 -13 0 -8 5 -12 10 -9
6 4 5 -4 -1 -19 -7 -14 -17 -23 -23 -19 -6 3 -5 0 1 -7 10 -11 9 -18 -5 -34
-16 -19 -16 -19 3 -13 17 6 18 5 5 -6 -15 -12 -22 -30 -23 -54 0 -7 -4 -13 -8
-13 -4 0 -6 -12 -3 -26 3 -14 1 -23 -5 -20 -5 3 -12 -1 -15 -10 -4 -10 -2 -13
7 -8 8 5 7 2 -2 -9 -7 -9 -11 -17 -7 -17 4 0 0 -13 -9 -30 -12 -23 -12 -30 -3
-30 10 0 10 -2 0 -9 -7 -4 -14 -17 -15 -29 0 -12 -6 -23 -13 -26 -7 -3 -9 -16
-6 -32 4 -21 2 -25 -9 -19 -12 8 -12 6 0 -8 9 -11 10 -17 2 -17 -6 0 -11 -12
-11 -26 0 -14 -4 -23 -8 -20 -5 3 -8 -8 -7 -24 1 -17 -2 -30 -8 -30 -5 0 -6
-7 -3 -16 3 -9 2 -12 -4 -9 -7 4 -9 -3 -6 -19 3 -18 1 -24 -6 -20 -7 5 -9 0
-6 -14 4 -12 2 -22 -4 -22 -5 0 -6 -4 -3 -10 3 -5 1 -10 -5 -10 -6 0 -8 -5 -5
-10 4 -6 1 -18 -6 -26 -6 -8 -9 -17 -6 -21 3 -3 -1 -19 -9 -35 -10 -19 -11
-27 -4 -23 7 4 5 -4 -4 -17 -9 -14 -13 -28 -10 -31 4 -4 1 -13 -5 -21 -7 -8
-10 -19 -7 -25 3 -5 1 -11 -5 -13 -10 -3 -20 -42 -20 -81 0 -9 -4 -15 -9 -12
-6 3 -7 -1 -4 -9 3 -9 1 -16 -6 -16 -6 0 -8 -5 -5 -10 4 -6 2 -17 -5 -25 -8
-10 -8 -15 1 -21 9 -5 7 -11 -6 -21 -11 -7 -15 -13 -9 -13 5 0 2 -5 -6 -10
-13 -9 -13 -11 0 -19 12 -9 12 -11 -2 -16 -9 -4 -14 -13 -12 -20 3 -7 0 -16
-6 -20 -8 -5 -8 -11 1 -21 10 -12 10 -15 -1 -12 -8 2 -15 -4 -16 -12 0 -8 -2
-18 -4 -22 -5 -15 -8 -28 -9 -49 0 -11 -5 -18 -10 -15 -5 4 -7 -3 -4 -14 3
-11 0 -20 -6 -20 -6 0 -11 -5 -11 -11 0 -5 6 -7 13 -3 8 5 8 2 -2 -9 -7 -9
-10 -17 -5 -17 5 0 1 -7 -9 -14 -11 -9 -14 -17 -8 -20 10 -7 4 -37 -11 -46 -4
-3 -9 -15 -11 -25 -1 -11 -6 -26 -10 -32 -5 -7 -5 -17 -2 -23 3 -5 1 -10 -5
-10 -6 0 -8 -5 -5 -10 4 -6 1 -17 -5 -25 -7 -8 -10 -22 -6 -30 3 -8 1 -15 -5
-15 -6 0 -7 -4 -4 -10 3 -5 2 -10 -3 -10 -6 0 -8 -9 -5 -20 3 -11 0 -20 -6
-20 -5 0 -8 -6 -5 -14 3 -8 0 -17 -6 -21 -9 -6 -9 -10 1 -16 11 -7 11 -9 -3
-9 -10 0 -15 -7 -13 -17 1 -10 -2 -23 -7 -30 -5 -7 -7 -16 -4 -21 3 -6 -1 -15
-9 -22 -12 -10 -12 -16 -4 -26 9 -10 8 -15 -3 -19 -8 -3 -14 -16 -13 -28 1
-12 -2 -24 -6 -27 -5 -4 -10 -23 -11 -43 -2 -26 -7 -36 -16 -32 -7 3 -10 0 -7
-5 3 -5 -2 -35 -11 -67 -9 -32 -16 -66 -17 -75 -1 -10 -5 -18 -10 -18 -5 0 -6
-7 -3 -16 3 -8 2 -12 -4 -9 -6 4 -10 -6 -10 -22 0 -16 -6 -35 -12 -42 -11 -11
-10 -12 1 -6 9 5 8 0 -3 -17 -9 -14 -13 -28 -10 -31 4 -4 1 -13 -5 -21 -7 -8
-10 -20 -6 -26 3 -5 -2 -10 -12 -11 -10 0 -13 -3 -6 -6 10 -3 10 -10 2 -24 -5
-11 -7 -24 -4 -29 3 -6 1 -10 -5 -10 -7 0 -10 -7 -7 -15 4 -8 2 -17 -3 -20 -6
-4 -10 -17 -10 -31 0 -18 -4 -23 -12 -18 -9 5 -9 2 1 -9 7 -9 9 -17 3 -17 -9
0 -22 -41 -27 -84 -1 -10 -8 -22 -15 -26 -15 -10 -15 -21 2 -31 10 -7 9 -9 -5
-9 -10 0 -15 -5 -12 -10 4 -6 1 -18 -7 -27 -11 -14 -11 -16 1 -9 8 6 7 0 -4
-18 -10 -14 -14 -26 -10 -26 4 0 1 -8 -6 -17 -12 -15 -12 -16 6 -10 18 6 18 5
-1 -9 -13 -8 -20 -22 -17 -32 4 -16 151 -17 2354 -16 1935 0 2352 3 2362 14
10 10 9 11 -2 5 -11 -6 -13 -4 -8 8 3 10 2 17 -4 17 -6 0 -8 4 -5 9 4 5 0 12
-6 14 -9 4 -9 6 -1 6 8 1 7 10 -3 31 -9 16 -13 34 -10 39 4 5 2 11 -3 13 -5 1
-11 14 -13 28 -1 14 -7 28 -13 32 -6 5 -5 8 3 8 6 0 12 5 12 11 0 5 -4 8 -8 5
-4 -2 -14 4 -21 16 -7 11 -8 17 -2 13 6 -3 11 -1 11 4 0 6 -5 11 -11 11 -6 0
-9 7 -5 15 3 8 -2 21 -10 30 -12 11 -12 15 -2 15 10 0 9 3 -2 10 -8 5 -11 10
-6 10 5 0 4 6 -1 13 -6 6 -9 22 -8 35 1 13 -3 26 -8 29 -6 4 -7 1 -2 -7 5 -8
4 -11 -2 -7 -6 4 -9 18 -8 32 2 14 -1 25 -5 25 -5 0 -7 9 -5 20 2 11 -3 26
-11 34 -10 11 -11 16 -1 19 9 4 9 6 0 6 -7 1 -13 9 -13 19 0 10 -6 24 -12 31
-11 10 -10 11 2 8 8 -2 12 -2 7 1 -4 2 -12 13 -18 24 -9 16 -8 19 3 12 11 -7
11 -5 0 9 -8 9 -10 22 -6 28 4 8 3 9 -4 5 -8 -5 -12 2 -12 18 0 14 -6 26 -12
26 -9 0 -8 4 2 10 12 8 12 10 1 10 -11 0 -11 3 0 17 10 12 10 15 1 9 -13 -8
-34 32 -25 48 3 4 -1 12 -8 17 -12 7 -12 9 0 9 11 0 10 4 -3 19 -10 11 -15 24
-12 30 4 5 1 13 -5 16 -5 4 -8 13 -5 21 3 8 1 14 -4 14 -6 0 -10 5 -10 11 0 5
4 8 9 5 5 -4 4 5 -2 18 -7 13 -14 23 -18 20 -3 -2 -5 8 -3 21 1 14 -2 25 -8
25 -6 0 -5 7 2 16 11 12 11 15 0 12 -14 -3 -16 2 -18 55 -1 19 -6 26 -14 21
-7 -5 -9 -2 -5 8 3 9 0 21 -6 27 -8 8 -7 11 3 11 11 1 10 3 -3 11 -13 8 -15
14 -7 29 8 16 8 18 -4 14 -11 -4 -14 0 -11 15 2 12 -1 21 -6 21 -6 0 -8 4 -5
8 3 5 -1 21 -9 36 -8 14 -10 24 -5 21 6 -4 10 -1 10 4 0 6 -5 11 -11 11 -5 0
-8 4 -4 9 3 5 -2 17 -11 25 -10 10 -11 16 -3 16 8 0 8 5 -2 17 -8 9 -13 24
-11 35 2 10 -2 18 -8 18 -6 0 -8 5 -5 10 4 6 1 18 -7 27 -11 14 -11 16 2 9 9
-5 8 -2 -2 7 -12 9 -14 17 -7 24 8 8 7 13 0 17 -6 4 -11 16 -11 27 0 10 -5 19
-11 19 -5 0 -7 5 -4 10 3 6 0 10 -7 10 -11 0 -11 2 0 9 11 6 10 11 -3 25 -12
12 -13 16 -3 16 10 0 10 2 1 8 -7 5 -14 20 -15 35 -1 15 -6 27 -11 27 -5 0 -6
9 -2 19 3 11 1 22 -5 26 -6 3 -8 10 -5 15 3 5 -3 13 -12 19 -11 6 -13 11 -5
11 8 0 10 5 5 13 -9 14 -13 29 -20 75 -4 25 -9 32 -21 27 -12 -4 -12 -3 -3 9
8 9 8 16 2 20 -6 4 -7 14 -4 23 4 9 2 14 -3 10 -5 -3 -10 2 -11 11 -3 46 -8
62 -18 62 -5 0 -3 5 5 10 11 7 11 10 2 10 -7 0 -10 5 -7 10 3 6 1 10 -5 10 -7
0 -10 7 -7 15 4 8 1 17 -4 21 -6 3 -9 14 -6 24 3 11 -2 21 -11 25 -11 4 -12 9
-4 17 8 8 7 15 -4 26 -8 8 -13 21 -10 28 3 8 2 14 -2 14 -4 0 -9 14 -10 32 -2
18 -10 41 -20 52 -9 11 -11 16 -5 12 9 -5 11 -2 7 8 -3 9 -10 16 -15 16 -6 0
-5 10 2 21 8 15 8 19 0 15 -10 -7 -16 12 -12 42 1 6 -2 12 -7 12 -6 0 -13 7
-16 16 -4 10 -2 13 7 8 8 -5 7 -2 -2 9 -7 9 -10 17 -6 17 4 0 2 7 -5 15 -6 8
-8 20 -4 26 5 8 3 9 -6 4 -9 -5 -10 -2 -5 14 4 12 2 21 -4 21 -6 0 -11 5 -11
11 0 5 6 7 13 4 6 -4 3 1 -7 9 -11 9 -16 16 -12 16 5 0 2 8 -5 17 -8 9 -9 14
-3 10 14 -8 -5 53 -24 76 -9 10 -10 17 -3 22 7 4 5 15 -5 31 -11 16 -12 24 -4
24 7 0 6 6 -4 16 -9 8 -14 20 -11 25 4 5 2 9 -3 9 -6 0 -13 7 -16 16 -3 8 -2
12 3 9 5 -3 12 -1 16 5 3 5 -1 10 -9 10 -9 0 -13 7 -11 19 2 11 -3 22 -13 26
-13 5 -14 8 -3 14 10 6 9 11 -4 25 -12 12 -13 16 -3 16 11 0 11 2 0 9 -7 4
-14 22 -14 39 -1 19 -5 29 -11 25 -6 -4 -8 0 -4 10 4 10 1 17 -5 17 -6 0 -8 3
-5 7 4 3 1 13 -6 21 -10 13 -9 14 1 8 10 -6 10 0 -2 22 -9 17 -13 39 -9 48 4
12 3 15 -6 10 -8 -5 -12 -3 -10 5 3 25 -1 40 -9 35 -5 -3 -9 1 -9 9 0 8 4 12
8 9 5 -2 2 8 -6 23 -8 15 -12 36 -9 47 4 13 3 16 -6 11 -10 -6 -12 -1 -8 18 3
16 0 28 -7 31 -8 3 -12 19 -11 40 1 25 -2 32 -10 25 -8 -7 -12 -5 -11 3 1 38
-4 69 -11 64 -4 -2 -8 3 -9 12 -4 45 -11 73 -24 89 -9 11 -10 14 -1 9 6 -4 12
-2 12 3 0 6 -5 11 -11 11 -5 0 -8 4 -4 9 3 5 0 15 -7 23 -12 12 -16 29 -21 86
-1 12 -9 22 -17 22 -13 0 -13 1 0 10 13 9 13 10 0 10 -12 0 -13 2 -1 9 9 6 10
10 2 12 -7 3 -14 13 -16 24 -2 11 -4 22 -5 25 -3 8 -7 24 -8 38 -1 7 -6 10
-12 7 -7 -4 -7 3 0 20 7 17 7 24 0 20 -6 -3 -10 3 -10 14 0 31 -11 52 -24 44
-6 -4 -5 1 3 10 7 9 9 17 3 17 -5 0 -8 9 -5 20 3 12 0 20 -6 20 -7 0 -11 8 -9
18 2 10 -2 16 -11 14 -12 -3 -12 0 -1 12 7 9 9 16 4 16 -5 0 -10 12 -11 26 0
15 -6 30 -13 34 -17 10 -17 15 -1 34 12 14 12 16 -3 10 -12 -5 -17 -2 -15 7 4
25 -13 99 -22 94 -4 -3 -8 3 -8 12 0 25 -6 51 -14 59 -4 4 -7 17 -7 30 0 12
-6 25 -12 27 -10 4 -10 6 0 6 6 1 12 6 12 12 0 5 -5 7 -12 3 -8 -5 -9 -2 -5 9
3 10 2 17 -3 17 -5 0 -7 9 -5 20 2 11 0 20 -6 20 -5 0 -9 11 -9 25 0 14 -6 25
-12 25 -10 0 -9 3 1 9 9 6 10 10 2 12 -6 2 -12 19 -14 37 -1 17 -5 32 -9 32
-5 0 -8 13 -8 29 0 17 -4 33 -10 36 -5 3 -10 17 -10 30 0 13 -4 26 -9 30 -6 3
-10 13 -10 23 0 37 -7 58 -24 71 -13 9 -15 17 -8 24 7 7 6 18 -3 36 -7 14 -12
34 -11 44 2 9 -1 17 -6 17 -6 0 -8 4 -4 9 3 5 1 12 -4 16 -6 3 -8 12 -4 20 3
8 0 15 -7 15 -8 0 -10 8 -7 21 3 13 0 22 -10 26 -12 5 -12 7 -1 14 11 7 11 9
-1 9 -7 0 -11 6 -7 15 3 8 0 15 -7 15 -9 0 -8 3 1 9 11 6 10 10 -4 15 -9 3
-14 9 -11 13 4 3 1 13 -6 21 -9 13 -9 14 1 8 6 -4 12 -2 12 4 0 6 -7 13 -15
16 -13 5 -13 9 -3 22 10 12 10 14 1 8 -7 -4 -13 -3 -13 3 0 5 6 12 13 14 7 4
6 6 -4 6 -10 1 -16 9 -15 24 0 12 -4 21 -10 20 -7 -1 -9 8 -6 24 4 20 2 24 -9
18 -12 -7 -12 -6 -1 7 9 11 10 18 2 23 -5 3 -10 15 -10 26 0 10 -4 19 -9 19
-5 0 -7 14 -6 30 1 17 -2 33 -8 37 -6 4 -7 1 -2 -7 5 -9 4 -11 -4 -6 -6 4 -9
12 -5 17 3 5 0 17 -8 26 -9 12 -9 15 0 9 6 -4 12 -2 12 3 0 6 -8 11 -17 12
-15 0 -15 2 2 9 11 5 15 9 8 9 -11 1 -24 29 -28 61 -1 8 -7 28 -13 43 -7 16
-10 33 -6 38 3 5 0 9 -6 9 -6 0 -10 10 -8 23 2 12 -4 28 -12 35 -13 12 -13 13
0 6 13 -7 13 -5 2 9 -8 9 -11 21 -7 27 3 5 -2 10 -12 10 -15 0 -16 2 -3 10 9
6 10 10 3 10 -6 0 -10 9 -8 20 2 11 -3 24 -13 30 -12 6 -13 9 -3 10 10 0 11 3
2 14 -6 7 -12 25 -13 40 -1 14 -5 26 -8 26 -3 0 -7 12 -8 27 -1 15 -6 30 -12
33 -5 3 -10 22 -12 43 -1 20 -6 37 -10 37 -4 0 -8 10 -8 23 0 13 -6 29 -12 36
-11 11 -10 12 2 6 12 -6 13 -5 3 6 -7 7 -13 21 -13 31 0 10 -4 18 -9 18 -5 0
-9 10 -10 23 -1 39 -4 57 -10 57 -4 0 -8 11 -9 25 -3 36 -6 49 -14 55 -4 3 -8
20 -10 37 -1 17 -5 30 -9 27 -4 -2 -9 5 -12 16 -3 11 0 20 6 20 7 0 5 6 -4 13
-9 7 -15 20 -13 30 1 9 -4 24 -13 32 -11 12 -11 15 -1 15 9 0 10 2 1 8 -6 4
-13 21 -16 38 -3 17 -10 40 -16 51 -5 11 -7 23 -3 27 3 4 0 11 -8 17 -13 8
-13 10 0 19 9 6 10 10 3 10 -9 0 -25 27 -28 50 0 3 -4 11 -8 18 -5 7 -3 12 5
13 7 0 4 4 -7 9 -14 6 -15 9 -5 10 12 0 11 4 -4 15 -11 8 -15 15 -8 15 6 0 9
7 6 15 -4 8 -11 12 -18 8 -8 -4 -8 -2 1 7 13 14 6 41 -14 53 -11 7 -11 12 -2
23 6 8 7 14 2 14 -5 0 -10 9 -11 20 -4 48 -6 51 -21 45 -13 -5 -13 -4 -4 6 8
8 9 18 2 31 -5 10 -7 23 -4 28 4 6 0 13 -8 16 -8 3 -13 16 -11 30 1 13 -2 24
-7 24 -6 0 -7 5 -4 11 4 5 -1 20 -12 31 -10 12 -12 18 -5 14 18 -10 15 4 -5
27 -13 15 -14 18 -3 12 13 -7 13 -6 2 7 -7 8 -9 24 -5 33 5 14 3 16 -7 10 -10
-6 -12 -4 -7 8 3 9 2 19 -3 22 -5 3 -7 12 -3 20 3 8 1 15 -5 15 -5 0 -13 7
-16 16 -3 8 -2 13 3 10 5 -4 7 3 4 14 -3 11 -10 20 -15 20 -5 0 -8 10 -6 23 2
15 -2 21 -11 19 -12 -3 -12 0 -1 12 10 13 10 16 -1 16 -11 0 -11 2 1 10 10 6
11 10 3 10 -7 0 -13 7 -13 15 0 8 -6 15 -12 15 -9 0 -8 4 2 10 12 7 12 10 1
10 -8 0 -11 6 -7 16 4 9 1 23 -5 30 -6 8 -9 21 -5 29 3 9 -1 18 -8 21 -8 3
-13 14 -11 25 2 10 0 19 -6 19 -5 0 -9 8 -9 18 0 10 -6 24 -12 31 -10 11 -10
13 0 7 6 -4 12 -2 12 3 0 6 -4 11 -10 11 -5 0 -10 6 -10 14 0 8 -4 18 -10 21
-5 3 -10 -3 -10 -14z"/>
<path d="M276 16890 c-12 -4 -12 -8 4 -27 10 -13 25 -23 33 -23 24 0 67 -26
59 -36 -4 -5 -3 -6 2 -2 5 4 16 2 24 -5 13 -10 14 -9 8 1 -5 8 9 3 30 -11 22
-13 51 -27 66 -30 15 -4 33 -14 41 -22 8 -8 17 -12 19 -9 3 2 22 -8 44 -22 21
-15 32 -19 25 -10 -12 14 -12 16 3 10 9 -3 16 -10 16 -15 0 -5 9 -9 20 -9 11
0 20 -5 20 -11 0 -5 5 -7 10 -4 6 3 10 2 10 -4 0 -5 9 -8 20 -6 11 2 25 -4 32
-13 7 -9 22 -19 33 -20 11 -2 23 -9 27 -15 4 -7 8 -8 8 -3 0 5 6 3 13 -3 8 -6
17 -8 20 -4 4 3 7 1 7 -5 0 -7 9 -12 20 -12 11 0 20 -4 20 -10 0 -5 9 -10 20
-10 11 0 20 -5 20 -11 0 -5 4 -8 9 -4 5 3 12 1 16 -5 4 -6 11 -8 16 -5 5 4 12
0 15 -9 3 -8 12 -12 19 -10 7 3 16 1 20 -5 3 -6 15 -11 26 -11 10 0 19 -3 19
-8 0 -11 58 -34 70 -27 5 3 10 -1 10 -9 0 -10 9 -16 22 -16 12 0 30 -8 41 -17
15 -13 19 -14 13 -3 -4 8 -1 7 7 -3 8 -10 24 -19 36 -20 12 -1 21 -5 21 -9 0
-4 9 -8 20 -8 11 0 20 -4 20 -10 0 -5 9 -10 20 -10 11 0 20 -5 20 -11 0 -5 4
-8 8 -5 5 3 23 -4 41 -15 18 -11 36 -17 42 -14 5 4 9 1 9 -4 0 -6 9 -11 20
-11 11 0 20 -4 20 -9 0 -5 12 -12 28 -16 15 -3 36 -14 46 -23 15 -13 18 -14
12 -2 -4 8 -1 7 7 -3 8 -10 19 -17 23 -16 16 2 54 -13 54 -23 0 -5 4 -7 9 -3
5 3 12 1 16 -5 4 -6 11 -8 16 -5 5 4 9 1 9 -4 0 -6 9 -11 19 -11 11 0 21 -5
23 -11 2 -5 11 -11 20 -13 10 -1 21 -5 24 -9 4 -4 18 -7 30 -7 13 0 29 -8 36
-17 7 -10 22 -20 33 -21 11 -2 29 -11 39 -20 11 -10 16 -11 12 -5 -5 9 -2 11
8 7 9 -3 16 -11 16 -17 0 -6 3 -7 7 -4 3 4 15 -1 26 -10 13 -12 17 -13 12 -4
-5 8 6 5 23 -8 18 -12 41 -23 52 -24 11 -1 20 -7 20 -14 0 -7 6 -10 14 -7 8 3
17 0 21 -5 3 -6 11 -9 16 -6 5 4 9 1 9 -4 0 -6 3 -11 8 -10 15 2 52 -14 52
-23 0 -5 4 -7 9 -3 5 3 16 -2 24 -10 9 -8 21 -15 28 -15 7 0 21 -8 32 -17 11
-10 17 -12 13 -5 -10 16 9 16 26 -1 14 -14 43 -28 68 -33 8 -2 16 -8 18 -13 2
-6 12 -11 23 -11 10 0 19 -4 19 -10 0 -5 8 -10 18 -10 20 0 103 -40 114 -55 5
-6 8 -5 8 3 0 10 3 10 14 0 8 -7 12 -16 10 -20 -2 -3 4 -4 14 -1 11 2 25 -2
33 -9 8 -8 18 -15 22 -15 22 -3 87 -34 87 -43 0 -5 7 -7 15 -3 9 3 25 -3 37
-13 15 -13 19 -14 14 -4 -4 8 -1 7 7 -3 9 -10 18 -18 21 -19 19 0 46 -12 46
-19 0 -5 7 -6 15 -3 8 4 15 1 15 -5 0 -6 9 -11 20 -11 11 0 20 -4 20 -10 0 -5
7 -7 15 -4 8 4 15 1 15 -6 0 -6 5 -8 10 -5 5 3 10 1 10 -4 0 -6 9 -11 20 -11
11 0 20 -4 20 -10 0 -5 9 -10 20 -10 11 0 20 -5 20 -12 0 -6 3 -8 7 -5 3 4 12
2 19 -4 8 -6 21 -9 29 -5 9 3 13 2 10 -4 -5 -9 9 -15 18 -7 2 1 11 -6 21 -16
10 -9 22 -15 27 -12 5 4 9 1 9 -5 0 -7 7 -9 15 -6 10 4 19 -2 25 -17 5 -12 9
-17 9 -10 1 13 41 5 41 -8 0 -5 9 -9 19 -9 11 0 21 -5 23 -11 2 -6 15 -12 30
-12 14 -1 24 -4 22 -6 -7 -7 36 -32 45 -27 5 3 12 -1 15 -10 3 -8 10 -13 15
-10 12 8 61 -14 61 -26 0 -5 4 -7 9 -4 5 3 20 -3 33 -14 20 -15 28 -16 38 -7
10 9 11 9 6 0 -6 -12 5 -18 27 -14 4 0 7 -2 7 -7 0 -4 14 -13 30 -20 17 -6 43
-17 59 -24 16 -7 27 -17 23 -23 -3 -5 3 -3 13 5 15 12 17 12 10 1 -6 -11 -4
-13 8 -8 10 3 17 3 17 -2 0 -8 38 -24 53 -22 4 1 7 -6 7 -14 0 -9 6 -12 15 -8
9 3 23 -3 31 -13 9 -11 13 -14 9 -7 -4 9 3 8 21 -2 15 -8 31 -12 36 -9 5 3 7
0 6 -6 -2 -7 8 -14 22 -16 13 -3 28 -10 32 -17 4 -6 8 -7 8 -2 0 6 7 1 15 -9
11 -14 15 -16 15 -5 0 8 3 10 8 4 4 -5 18 -16 31 -23 19 -11 22 -11 16 0 -3 7
1 4 9 -6 9 -11 16 -16 16 -11 0 4 10 0 22 -11 12 -10 18 -13 14 -6 -7 11 -4
11 13 0 12 -7 21 -16 21 -21 0 -4 4 -6 9 -2 5 3 13 0 16 -6 4 -5 13 -8 21 -5
8 3 14 1 14 -5 0 -6 5 -7 10 -4 6 3 10 1 10 -4 0 -6 9 -11 20 -11 11 0 20 -5
20 -11 0 -7 9 -9 21 -6 12 3 18 3 15 0 -10 -10 15 -32 30 -26 8 3 14 1 14 -5
0 -6 8 -9 18 -8 9 2 20 -2 24 -8 4 -6 12 -12 18 -12 5 -1 15 -2 21 -3 5 0 8
-5 5 -10 -3 -4 2 -8 12 -8 34 0 43 -3 38 -12 -3 -5 1 -12 10 -15 8 -3 12 -2 9
4 -3 6 1 7 9 4 9 -3 16 -10 16 -16 0 -5 5 -6 10 -3 6 3 10 1 10 -5 0 -6 4 -9
9 -6 13 8 62 -19 53 -29 -4 -5 -2 -5 4 -2 6 3 22 0 37 -8 14 -7 28 -11 31 -7
3 3 6 -3 6 -14 0 -16 2 -17 10 -4 7 11 10 11 10 2 0 -7 4 -11 9 -7 5 3 17 -2
25 -11 9 -8 16 -12 16 -7 0 4 5 1 10 -7 9 -13 10 -13 10 0 1 12 3 11 11 -2 5
-10 17 -18 24 -18 8 0 15 -6 15 -12 0 -9 4 -8 10 2 8 13 10 13 10 -2 0 -11 6
-16 20 -13 11 2 20 -1 20 -6 0 -6 4 -7 10 -4 6 3 10 1 10 -6 0 -6 8 -9 20 -6
11 3 18 1 14 -4 -3 -5 2 -9 10 -9 9 0 16 -4 16 -10 0 -5 3 -9 8 -9 21 4 32 -2
26 -13 -4 -7 -4 -10 1 -6 4 4 15 2 23 -5 13 -10 14 -9 8 1 -7 11 -4 11 15 0
13 -7 32 -20 42 -28 16 -12 19 -12 27 0 8 12 10 12 10 -3 0 -10 4 -15 10 -12
5 3 10 1 10 -4 0 -6 7 -11 15 -11 8 0 15 -6 15 -12 0 -9 4 -8 10 2 5 8 10 10
10 5 0 -6 16 -17 35 -24 19 -7 35 -17 35 -23 0 -6 7 -5 17 3 11 10 14 10 9 2
-5 -9 0 -13 14 -13 13 0 19 -4 14 -11 -4 -7 -1 -10 7 -7 8 3 20 -2 27 -11 8
-9 11 -10 7 -3 -4 7 9 4 30 -8 19 -11 40 -20 46 -20 6 0 17 -7 26 -15 8 -9 20
-14 27 -12 6 2 17 -3 24 -12 11 -13 12 -13 7 -1 -4 8 1 6 9 -4 9 -11 19 -17
22 -13 4 4 13 -1 21 -11 9 -10 11 -11 7 -2 -7 12 -5 13 8 3 8 -7 18 -10 21 -6
4 3 9 -1 13 -10 3 -9 14 -14 25 -12 10 2 18 -1 16 -8 -1 -7 4 -11 11 -10 6 2
12 -1 12 -7 0 -5 6 -7 13 -4 7 2 22 -4 34 -15 15 -14 23 -17 26 -8 4 9 6 9 6
0 1 -7 10 -13 21 -13 11 0 20 -5 20 -11 0 -5 5 -7 10 -4 6 3 10 1 10 -5 0 -6
4 -9 9 -6 5 3 12 -1 15 -10 3 -8 11 -12 17 -9 5 4 18 0 27 -8 9 -8 25 -13 35
-12 9 2 17 0 17 -5 0 -4 11 -11 25 -14 14 -4 23 -11 20 -16 -3 -6 1 -7 9 -4 9
3 16 1 16 -6 0 -6 5 -8 11 -5 6 4 17 -1 25 -11 9 -11 12 -12 8 -4 -5 10 0 9
14 -4 12 -11 22 -16 22 -12 0 3 14 0 30 -9 17 -9 30 -12 30 -8 0 5 4 3 8 -3
12 -17 86 -59 77 -43 -6 10 -3 10 11 -2 10 -9 25 -14 33 -11 8 2 11 1 8 -4 -3
-5 6 -14 19 -21 18 -8 22 -8 17 0 -3 7 3 4 14 -6 11 -9 23 -14 26 -10 4 3 7 1
7 -5 0 -7 9 -12 20 -12 11 0 20 -5 20 -11 0 -6 7 -9 15 -5 8 3 15 1 15 -5 0
-6 4 -7 10 -4 5 3 10 1 10 -5 0 -6 5 -8 10 -5 6 3 13 0 16 -9 3 -9 12 -12 21
-9 11 4 14 2 9 -5 -5 -8 -2 -10 8 -6 9 3 16 1 16 -6 0 -6 4 -8 10 -5 6 3 10 1
10 -5 0 -6 4 -8 10 -5 5 3 10 0 10 -7 0 -9 3 -9 10 2 6 9 10 10 10 3 0 -10 30
-26 52 -28 4 0 13 -6 20 -12 6 -7 20 -13 30 -13 10 0 18 -3 18 -7 0 -5 11 -13
25 -20 19 -8 23 -8 18 0 -3 7 3 4 15 -6 11 -11 26 -16 31 -12 6 3 11 1 11 -4
0 -6 9 -11 21 -11 11 0 17 -4 14 -10 -3 -5 -1 -10 5 -10 6 0 29 -9 51 -19 21
-11 36 -14 32 -8 -8 13 28 -12 39 -28 4 -5 8 -7 8 -2 0 4 15 0 33 -10 17 -9
38 -16 46 -14 8 1 10 -2 6 -10 -6 -8 -1 -10 18 -7 15 3 24 1 21 -3 -3 -5 0 -9
6 -9 6 0 9 -4 6 -9 -3 -4 5 -7 17 -7 12 1 31 -6 43 -16 11 -10 32 -19 46 -20
15 -1 25 -5 23 -9 -3 -3 7 -11 21 -18 20 -9 24 -8 18 1 -5 7 5 3 20 -10 16
-12 32 -20 36 -17 4 3 13 -2 20 -10 7 -8 16 -12 21 -9 5 3 9 0 9 -6 0 -7 7
-10 15 -6 8 3 15 1 15 -4 0 -4 14 -11 31 -15 17 -4 33 -14 36 -22 5 -12 7 -12
14 -1 7 10 9 10 9 1 0 -7 7 -13 15 -13 9 0 18 -6 21 -13 3 -8 18 -13 34 -12
16 1 28 -3 27 -9 -1 -6 8 -10 21 -10 12 1 22 -4 22 -12 0 -8 6 -11 15 -8 8 4
15 1 15 -5 0 -6 5 -11 12 -11 6 0 20 -8 31 -17 11 -10 17 -12 13 -5 -4 6 -2
12 3 12 6 0 11 -5 11 -12 0 -6 3 -9 6 -5 4 3 13 0 20 -8 8 -8 22 -11 31 -8 12
5 14 3 8 -7 -6 -10 -4 -12 8 -7 11 4 17 1 17 -7 0 -9 9 -13 25 -11 14 1 25 -1
25 -5 0 -4 12 -15 26 -25 18 -11 24 -12 18 -4 -6 11 -5 12 7 2 14 -11 19 -13
40 -13 5 0 8 -4 5 -8 -2 -4 5 -9 17 -9 12 -1 23 -7 25 -13 2 -5 10 -10 17 -10
21 0 65 -26 58 -34 -4 -4 0 -4 9 -1 10 4 35 -4 61 -19 24 -14 47 -23 50 -19 4
3 7 1 7 -6 0 -7 5 -9 10 -6 5 3 10 1 10 -5 0 -7 7 -9 16 -6 10 4 13 2 8 -6 -5
-7 0 -9 14 -6 14 4 22 2 22 -7 0 -7 7 -16 16 -19 15 -6 15 -4 3 10 -7 9 4 5
25 -10 21 -14 42 -24 46 -21 4 3 11 -2 14 -10 3 -8 9 -15 13 -14 25 4 53 -2
48 -11 -3 -5 1 -10 10 -10 9 0 27 -7 40 -16 13 -9 30 -12 36 -8 8 5 9 3 4 -6
-6 -10 -3 -12 13 -8 12 4 19 2 16 -3 -5 -9 11 -19 39 -23 8 -1 26 -10 41 -19
15 -10 32 -15 38 -11 7 5 9 2 5 -8 -4 -12 -1 -14 14 -11 12 3 21 -1 25 -12 5
-13 9 -14 15 -3 7 10 9 10 9 -2 0 -13 1 -13 10 0 8 13 10 13 10 -2 0 -9 5 -20
12 -24 7 -5 8 -3 3 7 -7 11 -6 12 7 2 8 -7 18 -10 21 -6 4 3 7 1 7 -6 0 -7 5
-9 10 -6 6 3 10 1 10 -5 0 -6 5 -8 10 -5 6 3 10 1 10 -5 0 -6 5 -8 10 -5 6 3
10 1 10 -4 0 -6 7 -11 15 -11 8 0 15 -6 15 -12 0 -10 3 -9 9 1 6 9 10 10 12 2
3 -7 14 -13 27 -14 12 0 22 -4 22 -8 0 -12 70 -40 82 -33 7 4 8 3 4 -4 -4 -7
-1 -12 9 -12 10 0 13 -5 9 -12 -5 -8 -2 -9 9 -5 9 3 23 -1 32 -9 8 -8 19 -13
24 -10 5 3 14 -1 21 -9 7 -8 21 -15 31 -15 11 0 19 -4 19 -10 0 -5 7 -10 16
-10 8 0 12 -4 9 -10 -3 -5 2 -10 11 -10 10 0 26 -8 37 -17 12 -11 17 -12 12
-4 -5 9 2 8 24 -5 17 -10 31 -21 31 -25 0 -4 7 -10 16 -13 10 -4 13 -2 9 7 -4
6 0 4 8 -5 8 -10 17 -15 20 -11 4 3 7 1 7 -5 0 -7 3 -11 8 -11 19 3 33 -3 53
-23 12 -13 18 -16 14 -8 -8 13 -6 13 8 2 9 -8 20 -11 25 -8 6 3 16 -2 23 -12
13 -16 13 -16 -6 -2 -19 14 -19 14 -6 -3 11 -14 17 -15 28 -5 11 9 13 8 11 -3
-2 -9 4 -13 16 -11 11 2 15 -1 11 -7 -3 -6 2 -11 12 -11 10 0 45 -13 76 -30
32 -16 65 -30 72 -30 8 0 29 -9 47 -19 17 -11 35 -18 40 -15 4 3 8 0 8 -7 0
-7 3 -9 7 -6 3 4 12 2 20 -5 7 -6 16 -8 20 -4 3 3 13 0 22 -7 16 -14 110 -43
124 -39 4 1 7 -3 7 -10 0 -6 3 -8 7 -5 3 4 15 -1 26 -10 11 -10 17 -12 13 -5
-4 6 -2 12 3 12 6 0 11 -5 11 -11 0 -5 4 -8 8 -5 5 3 19 -1 33 -8 27 -14 34
-16 50 -16 5 0 7 -5 3 -11 -4 -8 0 -8 15 0 18 10 21 9 22 -6 0 -12 2 -13 6 -5
4 11 9 10 22 -2 10 -9 31 -18 48 -20 16 -1 44 -10 62 -19 17 -9 29 -12 26 -7
-3 5 7 3 21 -5 15 -8 31 -12 36 -9 4 3 8 0 8 -5 0 -6 11 -11 25 -11 14 0 25
-5 25 -11 0 -6 7 -9 15 -5 8 3 21 -2 30 -10 8 -9 15 -12 15 -8 0 3 7 1 15 -6
8 -6 19 -9 24 -6 5 4 12 2 16 -4 3 -5 17 -10 31 -10 13 0 24 -5 24 -11 0 -6 6
-9 13 -6 6 2 29 -5 49 -15 21 -11 42 -17 48 -13 5 3 10 0 10 -8 0 -8 9 -13 23
-12 12 1 29 -3 37 -9 8 -7 22 -12 30 -11 20 1 39 -17 32 -30 -2 -5 1 -5 8 2
10 9 18 8 36 -4 13 -8 27 -12 33 -9 5 3 11 1 13 -4 2 -6 13 -12 26 -13 12 0
22 -6 22 -11 0 -5 3 -7 6 -3 4 3 13 0 20 -8 8 -8 21 -12 29 -9 8 4 15 1 15 -6
0 -6 5 -8 10 -5 6 3 13 0 16 -9 3 -8 12 -12 20 -9 8 3 21 -3 29 -13 9 -12 14
-14 15 -6 0 7 5 10 10 7 6 -4 8 -11 5 -16 -3 -5 1 -6 9 -3 10 4 18 -1 22 -10
5 -14 9 -14 22 -4 10 8 13 8 9 2 -7 -12 16 -27 43 -29 8 0 14 -7 12 -14 -2 -9
3 -11 13 -7 9 3 18 -1 21 -9 4 -8 12 -15 20 -15 8 0 14 -5 14 -12 0 -6 3 -8 6
-5 4 3 15 -5 26 -18 11 -14 27 -25 36 -26 10 0 12 -3 5 -6 -10 -3 -10 -7 0
-18 7 -7 15 -11 20 -8 4 2 7 -3 7 -11 0 -9 5 -16 11 -16 5 0 7 -4 4 -10 -3 -5
-1 -10 5 -10 6 0 9 -3 7 -8 -3 -4 3 -25 14 -46 10 -21 16 -42 14 -47 -3 -4 -1
-10 4 -13 12 -8 7 -113 -7 -148 -8 -20 -8 -28 1 -32 7 -2 4 -5 -5 -5 -10 -1
-15 -7 -13 -13 7 -19 -39 -94 -55 -90 -11 3 -11 0 0 -12 7 -9 8 -16 3 -16 -15
0 -53 -36 -53 -49 0 -7 -5 -9 -10 -6 -13 8 -41 -20 -32 -31 4 -5 -2 -2 -12 6
-18 14 -19 13 -12 -5 4 -11 4 -16 0 -12 -4 4 -16 0 -26 -10 -10 -9 -18 -13
-18 -8 0 4 -8 1 -17 -6 -15 -12 -16 -12 -8 1 6 10 2 9 -12 -3 -12 -10 -27 -20
-35 -21 -7 -1 -22 -7 -34 -14 -16 -8 -24 -8 -33 1 -10 9 -12 9 -9 -3 2 -10 -3
-14 -14 -12 -10 2 -18 -2 -18 -9 0 -9 -3 -9 -14 0 -9 8 -15 8 -18 2 -1 -6 -15
-12 -30 -13 -16 -1 -28 -7 -28 -13 0 -5 -5 -3 -10 5 -8 12 -10 12 -10 1 0 -9
-9 -12 -30 -9 -16 2 -32 0 -34 -6 -3 -7 -5 -6 -5 1 -1 9 -8 10 -25 3 -13 -5
-27 -6 -30 -3 -3 4 -6 2 -6 -3 0 -6 -45 -10 -110 -10 -67 1 -110 -3 -110 -9 0
-5 -5 -3 -10 5 -5 8 -10 10 -10 4 0 -7 -21 -9 -58 -7 -128 9 -188 8 -201 -2
-11 -7 -13 -7 -7 2 5 9 -1 12 -23 9 -18 -2 -31 1 -31 8 0 7 -3 7 -8 1 -8 -11
-53 -15 -47 -4 3 4 -4 9 -15 12 -10 3 -21 0 -24 -7 -2 -6 -5 -6 -5 -1 -1 6
-23 9 -51 8 -27 0 -50 2 -50 6 0 4 -18 7 -41 7 -22 -1 -43 2 -45 6 -3 5 -10 6
-15 3 -5 -4 -9 -1 -9 6 0 8 -4 9 -13 0 -10 -7 -17 -7 -24 0 -6 6 -33 11 -59
12 -27 1 -52 6 -55 11 -4 5 -26 10 -50 12 -74 6 -89 9 -89 17 0 5 -4 6 -9 3
-5 -4 -11 0 -14 6 -3 10 -7 10 -20 -1 -10 -7 -17 -9 -17 -3 0 5 -7 13 -16 16
-10 4 -13 2 -9 -7 4 -6 0 -4 -8 6 -10 12 -17 15 -22 7 -5 -8 -11 -8 -21 1 -8
6 -14 8 -14 4 0 -5 -10 0 -22 11 -12 10 -18 13 -14 7 9 -15 -10 -18 -19 -3 -4
6 -12 9 -18 8 -7 -1 -23 4 -36 11 -19 11 -22 11 -15 -1 7 -11 5 -11 -9 0 -9 8
-21 11 -27 7 -5 -3 -13 0 -16 8 -3 9 -14 12 -31 9 -20 -4 -24 -2 -18 8 6 9 4
11 -5 5 -7 -4 -16 -2 -21 6 -7 11 -9 11 -9 1 0 -10 -3 -10 -15 1 -8 9 -24 13
-35 10 -12 -3 -20 0 -20 6 0 7 -10 11 -22 9 -16 -2 -22 2 -20 11 3 12 0 12
-12 1 -12 -9 -16 -10 -16 0 0 7 -7 10 -15 6 -8 -3 -15 -2 -15 3 0 9 -56 25
-78 22 -7 -1 -19 5 -28 14 -9 8 -20 13 -25 10 -5 -4 -9 -2 -9 4 0 6 -6 8 -13
5 -8 -3 -20 2 -27 10 -7 9 -16 13 -21 10 -5 -3 -18 0 -29 6 -15 8 -20 8 -20
-2 0 -10 -2 -10 -9 0 -13 21 -61 43 -61 29 0 -7 -7 -4 -15 7 -7 10 -18 15 -24
11 -6 -3 -11 -2 -11 4 0 6 -7 8 -15 5 -8 -4 -15 -1 -15 6 0 6 -4 9 -9 6 -5 -3
-14 1 -21 10 -7 8 -19 13 -26 10 -7 -3 -16 -1 -19 4 -4 6 -15 10 -25 10 -10 0
-25 6 -32 13 -7 7 -22 12 -33 12 -11 0 -22 3 -25 7 -3 3 -14 8 -25 10 -11 1
-26 9 -33 16 -8 7 -18 10 -23 7 -5 -4 -9 -1 -9 5 0 6 -4 9 -9 5 -5 -3 -17 3
-27 12 -10 10 -19 16 -21 15 -2 -2 -17 1 -33 7 -17 5 -33 10 -37 10 -3 -1 -9
3 -12 8 -10 13 -49 33 -66 33 -8 0 -15 5 -15 12 0 6 -3 8 -7 5 -3 -4 -17 0
-31 9 -13 8 -26 13 -29 10 -3 -3 -12 2 -19 12 -9 11 -13 13 -14 4 0 -9 -9 -7
-29 7 -16 12 -36 21 -45 21 -9 0 -16 5 -16 10 0 6 -5 10 -11 10 -5 0 -7 -6 -4
-12 4 -7 -1 -4 -9 6 -9 11 -16 16 -16 11 0 -5 -5 -4 -12 3 -7 7 -20 12 -29 12
-9 0 -22 7 -29 15 -7 9 -19 14 -27 11 -7 -3 -13 -1 -13 4 0 6 -9 10 -21 10
-11 0 -18 4 -15 8 2 4 -5 9 -17 9 -12 1 -23 7 -25 13 -2 5 -8 8 -13 4 -5 -3
-9 0 -9 6 0 6 -5 8 -10 5 -6 -4 -22 1 -35 9 -14 9 -25 13 -25 10 0 -4 -9 3
-19 15 -13 15 -21 18 -26 10 -6 -8 -10 -7 -16 4 -5 8 -17 14 -27 13 -9 -2 -20
2 -24 8 -7 11 -11 12 -43 15 -8 0 -15 9 -15 19 0 14 -2 15 -10 2 -7 -11 -10
-11 -10 -2 0 7 -4 11 -9 7 -5 -3 -12 -1 -16 5 -4 6 -11 8 -16 5 -5 -4 -9 -1
-9 5 0 7 -6 10 -14 7 -7 -3 -25 6 -39 19 -15 14 -29 20 -32 14 -4 -6 -17 -2
-32 10 -14 11 -30 20 -36 20 -6 0 -19 8 -30 18 -15 12 -18 13 -12 2 7 -12 6
-13 -7 -3 -8 7 -18 10 -21 6 -4 -3 -7 -1 -7 5 0 7 -9 12 -19 12 -10 0 -21 7
-25 15 -3 8 -12 12 -21 9 -8 -3 -15 -1 -15 5 0 6 -9 11 -20 11 -12 0 -32 7
-45 16 -14 9 -25 13 -25 9 0 -3 -7 1 -16 9 -8 9 -20 14 -25 11 -5 -4 -9 -1 -9
6 0 7 -3 10 -6 6 -4 -3 -23 2 -44 13 -21 11 -41 16 -45 12 -5 -4 -5 -1 -1 6 4
7 1 12 -8 12 -8 0 -17 6 -19 13 -4 9 -6 9 -6 0 -1 -13 -79 23 -93 42 -5 6 -8
4 -8 -5 0 -9 -3 -11 -8 -4 -12 17 -81 46 -94 38 -7 -4 -8 -3 -4 4 4 7 1 12 -9
12 -9 0 -13 4 -10 10 4 6 -1 7 -11 3 -11 -4 -15 -3 -11 4 5 7 0 9 -12 6 -10
-3 -22 0 -25 6 -4 6 -15 11 -25 11 -10 0 -24 7 -31 15 -7 9 -15 13 -18 11 -2
-3 -18 2 -34 10 -16 8 -33 12 -39 9 -5 -4 -8 -3 -7 2 2 4 0 8 -3 8 -4 0 -16 8
-27 18 -12 11 -25 16 -31 13 -5 -3 -17 2 -27 11 -10 10 -18 16 -18 14 -1 -2
-11 -1 -24 3 -13 5 -20 12 -15 19 4 7 -1 6 -10 -2 -12 -9 -17 -10 -17 -2 0 7
-5 9 -10 6 -6 -3 -13 0 -16 9 -3 8 -11 13 -19 10 -7 -3 -19 2 -28 10 -9 9 -23
16 -32 16 -9 0 -14 4 -11 9 4 5 -5 8 -19 6 -14 -1 -35 6 -46 16 -12 10 -26 16
-30 13 -5 -3 -9 0 -9 5 0 6 -9 11 -20 11 -11 0 -20 5 -20 10 0 6 -3 9 -7 9 -5
-1 -11 0 -15 1 -16 5 -28 8 -45 9 -16 1 -16 3 -3 12 12 9 11 10 -7 6 -12 -3
-23 -1 -25 5 -3 8 -21 14 -50 17 -4 1 -14 8 -22 17 -12 12 -16 12 -16 2 0 -8
-3 -9 -8 -3 -14 20 -62 46 -62 33 0 -6 -11 -1 -24 11 -14 13 -29 20 -34 17 -6
-3 -12 -1 -14 4 -2 6 -13 12 -26 13 -12 0 -22 5 -22 10 0 4 -4 5 -10 2 -5 -3
-10 -1 -10 5 0 6 -4 8 -10 5 -5 -3 -10 -1 -10 4 0 6 -9 11 -19 11 -11 0 -21 5
-23 11 -2 6 -16 12 -31 12 -15 1 -27 4 -27 7 0 3 -14 14 -31 24 -23 13 -30 15
-25 5 4 -8 2 -7 -6 2 -7 9 -19 14 -25 12 -7 -3 -13 0 -13 7 0 6 -4 8 -10 5 -5
-3 -20 1 -33 10 -13 8 -27 12 -30 8 -4 -3 -7 -1 -7 5 0 7 -7 12 -15 12 -8 0
-15 5 -15 11 0 6 -7 9 -15 5 -8 -3 -21 2 -30 10 -8 9 -15 12 -15 8 0 -4 -10 1
-22 12 -12 10 -18 13 -14 7 4 -7 2 -13 -3 -13 -6 0 -11 6 -11 14 0 8 -8 13
-17 12 -10 -2 -24 4 -31 13 -10 12 -12 12 -6 1 7 -13 5 -13 -9 -1 -9 7 -17 10
-17 5 0 -5 -5 -1 -11 9 -6 9 -14 15 -20 12 -5 -4 -9 -1 -9 4 0 6 -3 10 -7 10
-5 -1 -11 0 -15 1 -13 4 -27 7 -39 9 -5 0 -7 5 -4 11 3 5 0 7 -8 4 -8 -3 -18
-1 -22 5 -3 6 -15 11 -26 11 -10 0 -19 5 -19 11 0 5 -4 8 -9 4 -5 -3 -13 0
-16 6 -4 5 -13 8 -21 5 -7 -3 -16 0 -20 6 -5 7 -2 8 6 3 8 -5 11 -4 7 2 -4 6
-18 9 -32 8 -14 -2 -23 1 -20 5 7 11 -13 23 -44 26 -13 2 -27 8 -31 14 -4 7
-10 11 -14 11 -22 -3 -36 0 -32 7 2 4 -7 9 -22 10 -14 1 -28 5 -31 10 -3 4
-17 13 -30 20 -19 11 -22 11 -15 0 9 -15 -25 9 -38 27 -4 6 -8 7 -8 2 0 -4
-13 -1 -30 8 -16 9 -30 12 -30 8 0 -5 -7 1 -15 11 -11 14 -15 16 -15 5 0 -12
-2 -12 -10 1 -5 8 -14 16 -20 16 -5 1 -12 3 -15 4 -7 3 -22 7 -36 9 -5 0 -8 5
-5 9 2 4 -5 9 -16 9 -12 1 -25 8 -29 15 -5 7 -9 9 -9 4 0 -4 -12 -1 -26 9 -15
9 -23 12 -19 5 5 -8 0 -7 -14 2 -12 7 -21 15 -21 19 0 5 -8 7 -49 11 -11 1
-17 6 -15 10 3 4 -4 8 -15 8 -12 0 -21 5 -21 11 0 5 -5 7 -10 4 -6 -3 -10 -2
-10 4 0 6 -6 8 -13 5 -7 -2 -22 4 -32 14 -22 20 -26 22 -56 22 -13 0 -18 4
-13 12 5 8 2 9 -9 5 -12 -4 -17 -1 -18 11 0 10 -3 12 -6 5 -3 -8 -10 -9 -21
-3 -52 27 -104 50 -113 50 -6 0 -17 7 -26 15 -8 8 -19 13 -24 10 -5 -4 -9 -2
-9 4 0 6 -6 8 -14 5 -7 -3 -21 2 -30 11 -9 9 -25 17 -36 18 -11 1 -20 5 -20 9
0 4 -9 8 -19 8 -11 0 -26 6 -33 13 -7 6 -20 13 -28 15 -8 2 -21 9 -28 15 -8 6
-23 12 -35 12 -11 1 -23 7 -25 14 -2 6 -8 8 -13 5 -6 -3 -19 2 -30 12 -11 9
-27 18 -37 20 -34 5 -62 16 -57 25 3 4 -4 6 -15 4 -11 -2 -19 -1 -16 3 2 4 -3
14 -12 22 -14 13 -15 12 -8 -5 6 -17 3 -16 -20 5 -15 14 -24 18 -19 10 6 -12
5 -13 -6 -2 -7 6 -21 12 -32 12 -10 0 -16 4 -13 8 4 7 -10 11 -51 14 -7 1 -13
5 -13 10 0 5 -4 7 -9 3 -5 -3 -12 -1 -16 5 -4 7 -13 7 -26 -1 -17 -9 -18 -13
-7 -27 10 -12 10 -14 1 -8 -23 13 -14 -8 14 -31 14 -13 23 -23 19 -23 -3 0 9
-15 29 -34 19 -19 35 -39 35 -45 0 -6 7 -11 16 -11 8 0 12 -4 9 -10 -3 -5 -1
-10 5 -10 6 0 9 -4 6 -9 -3 -5 3 -11 14 -14 11 -3 20 -12 20 -20 0 -9 9 -19
20 -22 11 -3 20 -13 20 -21 0 -8 5 -14 11 -14 5 0 7 -4 4 -10 -3 -5 1 -10 9
-10 8 0 18 -9 21 -20 3 -11 13 -20 21 -20 8 0 14 -4 14 -8 0 -5 16 -25 36 -46
19 -20 32 -41 29 -46 -6 -9 8 -14 28 -11 4 0 7 -4 7 -10 0 -15 26 -39 34 -31
4 3 4 -1 0 -11 -4 -11 -1 -17 7 -17 16 -1 85 -86 82 -100 -2 -5 4 -7 12 -4 8
4 15 2 15 -4 0 -13 67 -82 80 -82 5 0 7 -7 4 -15 -4 -8 -1 -15 6 -15 6 0 8 -4
5 -10 -3 -5 1 -10 10 -10 8 0 18 -7 21 -15 4 -8 10 -12 15 -9 8 5 13 -9 10
-28 0 -4 8 -10 19 -13 11 -4 20 -10 20 -14 0 -5 14 -22 30 -39 17 -18 30 -34
30 -37 0 -3 24 -28 53 -56 28 -28 51 -55 50 -60 -2 -5 5 -9 14 -9 9 0 14 -3
10 -6 -8 -8 33 -57 71 -83 12 -8 19 -18 16 -23 -3 -4 2 -8 10 -8 8 0 18 -5 22
-12 5 -7 3 -8 -6 -3 -7 5 -5 -3 6 -17 10 -14 22 -24 27 -21 4 2 7 -1 7 -7 0
-15 26 -41 34 -33 3 4 6 1 6 -6 0 -16 25 -41 40 -41 6 0 9 -4 5 -9 -3 -5 4
-16 15 -24 11 -7 17 -17 13 -20 -3 -4 -1 -7 6 -7 7 0 9 -5 6 -10 -4 -6 -3 -9
2 -8 4 2 9 -1 10 -7 1 -5 11 -12 22 -17 12 -4 21 -15 21 -23 0 -9 5 -13 10
-10 5 3 10 -2 10 -11 0 -10 3 -15 6 -11 6 6 54 -45 54 -58 0 -4 16 -21 35 -37
19 -17 31 -36 28 -42 -3 -6 -3 -8 1 -5 4 4 21 -5 37 -20 21 -20 28 -33 23 -47
-4 -13 -3 -15 3 -6 7 9 15 6 31 -13 12 -14 22 -30 22 -35 0 -6 6 -9 13 -8 6 2
11 -2 10 -9 -2 -6 6 -14 16 -18 10 -3 23 -17 29 -30 6 -14 16 -25 22 -25 5 0
10 -6 10 -14 0 -8 7 -17 16 -20 9 -3 12 -11 8 -18 -4 -7 -4 -10 1 -6 9 9 127
-111 120 -122 -3 -4 3 -14 13 -21 15 -12 16 -12 7 1 -5 9 0 4 12 -10 13 -14
23 -28 23 -32 0 -5 6 -8 14 -8 8 0 18 -9 21 -20 4 -11 11 -17 17 -14 7 5 9 1
5 -9 -3 -9 -2 -16 2 -14 5 1 8 0 7 -3 0 -3 22 -27 49 -54 28 -26 49 -52 47
-57 -1 -5 5 -9 13 -9 9 0 19 -8 22 -17 4 -10 17 -28 30 -41 13 -13 23 -27 23
-32 0 -6 4 -9 9 -8 5 2 9 0 10 -4 1 -5 21 -27 46 -52 25 -24 45 -47 45 -51 0
-4 15 -21 33 -38 17 -16 31 -34 29 -39 -1 -4 2 -8 7 -8 10 0 71 -57 66 -62 -2
-2 9 -17 23 -33 15 -17 23 -24 17 -15 -9 13 -8 13 8 1 9 -7 17 -18 17 -23 0
-14 27 -38 34 -31 3 4 6 -1 6 -11 0 -9 10 -21 23 -26 12 -5 16 -9 8 -9 -8 -1
0 -14 20 -33 19 -18 33 -36 31 -40 -1 -5 2 -8 8 -8 11 0 50 -36 50 -46 0 -10
28 -34 39 -34 6 0 11 -3 10 -7 -3 -22 16 -53 32 -53 10 0 21 -5 25 -12 5 -7 2
-9 -7 -3 -8 4 7 -13 33 -37 27 -24 48 -49 48 -56 0 -6 12 -19 27 -27 16 -9 20
-14 10 -11 -11 3 -15 2 -12 -4 3 -6 12 -10 18 -10 7 0 21 -14 32 -30 11 -16
26 -30 33 -30 6 0 12 -5 12 -11 0 -7 8 -18 18 -26 10 -9 11 -12 2 -7 -9 4 -7
-2 5 -13 11 -11 23 -19 28 -16 4 2 7 -1 7 -7 0 -6 18 -29 40 -50 22 -21 40
-43 40 -48 0 -5 7 -13 16 -16 8 -3 12 -10 9 -16 -3 -5 -1 -10 6 -10 13 0 49
-38 49 -52 0 -5 4 -6 10 -3 5 3 10 3 10 -2 0 -4 14 -22 30 -40 17 -18 30 -36
30 -41 0 -5 11 -17 25 -26 14 -9 23 -22 19 -28 -4 -6 -3 -8 3 -5 6 4 13 0 17
-8 3 -8 13 -15 21 -15 9 0 14 -4 11 -9 -3 -4 3 -16 14 -26 11 -10 17 -23 13
-29 -3 -6 -3 -8 2 -4 9 8 35 -15 35 -32 0 -6 4 -9 9 -6 5 3 15 -2 22 -11 12
-14 12 -16 0 -8 -8 5 5 -12 30 -36 24 -25 47 -44 51 -42 4 2 5 -6 3 -17 -3
-15 1 -20 17 -20 15 0 18 -4 14 -17 -4 -10 -4 -14 -1 -11 9 9 108 -90 101
-100 -3 -5 6 -15 19 -22 13 -7 22 -17 19 -22 -3 -4 2 -8 11 -8 9 0 14 -3 12
-7 -6 -10 19 -34 27 -26 3 4 6 2 6 -3 0 -6 8 -19 18 -30 10 -11 27 -32 36 -47
10 -15 25 -27 33 -27 13 0 13 -2 2 -17 -9 -11 -10 -14 -2 -9 9 5 11 2 7 -8 -3
-9 -11 -16 -17 -16 -7 0 -7 -4 1 -12 9 -9 8 -16 -6 -32 -12 -14 -13 -17 -2
-11 12 7 13 6 3 -7 -7 -8 -10 -18 -6 -21 3 -4 0 -7 -7 -7 -7 0 -10 -3 -7 -7 4
-3 2 -12 -4 -20 -9 -10 -8 -17 1 -29 11 -12 11 -15 0 -12 -8 2 -15 -3 -16 -9
-1 -7 -3 -16 -4 -20 -1 -5 -2 -12 -1 -17 1 -5 -3 -13 -10 -17 -7 -4 -14 -15
-15 -23 -1 -9 2 -14 7 -10 13 8 11 -13 -3 -28 -12 -12 -17 -28 -20 -65 -1 -7
-4 -13 -8 -13 -4 0 -6 -13 -5 -30 1 -16 -2 -27 -7 -24 -4 3 -8 -3 -8 -14 0
-10 -3 -22 -7 -25 -3 -4 -8 -24 -10 -44 -2 -20 -9 -43 -14 -50 -6 -7 -8 -16
-5 -21 3 -5 -2 -22 -10 -38 -9 -16 -16 -42 -16 -57 -1 -15 -5 -30 -10 -33 -4
-3 -6 -10 -3 -15 4 -5 1 -9 -5 -9 -6 0 -8 -4 -5 -10 3 -5 3 -16 -2 -22 -4 -7
-8 -17 -10 -23 -1 -5 -4 -20 -7 -32 -3 -13 -8 -32 -10 -42 -3 -11 -10 -30 -16
-42 -8 -15 -9 -19 -1 -15 12 8 -5 -38 -23 -63 -8 -11 -8 -13 1 -8 7 5 9 0 6
-13 -3 -11 -10 -20 -15 -20 -5 0 -6 -5 -3 -10 4 -6 2 -17 -4 -24 -6 -7 -9 -22
-6 -35 2 -12 0 -19 -4 -16 -14 8 -20 -21 -8 -35 9 -10 9 -11 0 -6 -9 5 -13 0
-13 -13 0 -12 -6 -21 -12 -21 -10 0 -10 -2 0 -9 11 -6 10 -11 -3 -25 -12 -12
-13 -16 -3 -16 10 0 10 -2 -1 -9 -7 -5 -11 -13 -7 -19 3 -6 -1 -18 -10 -26
-11 -12 -12 -16 -2 -16 9 0 9 -3 2 -8 -6 -4 -10 -15 -8 -24 1 -10 -3 -18 -9
-18 -5 0 -7 -3 -4 -7 4 -3 2 -12 -4 -20 -6 -7 -8 -13 -5 -13 4 0 2 -9 -4 -20
-8 -15 -8 -20 2 -20 8 0 6 -5 -5 -11 -9 -6 -15 -15 -11 -20 3 -5 0 -16 -6 -24
-6 -8 -9 -19 -5 -25 3 -5 2 -10 -4 -10 -5 0 -8 -9 -6 -20 2 -11 -1 -20 -6 -20
-6 0 -8 -4 -5 -8 3 -5 -1 -20 -8 -34 -10 -19 -11 -29 -3 -37 8 -8 8 -11 -1
-11 -7 0 -12 -7 -12 -16 0 -9 -5 -12 -12 -8 -10 5 -10 4 -1 -6 8 -9 8 -20 -3
-46 -8 -19 -11 -34 -8 -34 4 0 1 -6 -5 -13 -6 -8 -8 -17 -4 -20 3 -4 2 -7 -4
-7 -6 0 -9 -9 -5 -22 3 -11 1 -19 -4 -16 -5 4 -10 -8 -11 -25 -1 -17 -8 -34
-14 -38 -8 -5 -7 -8 2 -12 10 -4 10 -6 2 -6 -7 -1 -13 -12 -13 -25 0 -34 -10
-57 -22 -50 -7 5 -7 1 0 -12 7 -13 6 -24 -5 -40 -8 -13 -12 -28 -8 -34 3 -5 2
-10 -2 -10 -5 0 -10 -9 -11 -20 -1 -11 -3 -29 -4 -40 -1 -11 -9 -20 -18 -21
-8 0 -10 -3 -4 -5 14 -6 6 -44 -8 -44 -6 0 -5 -7 2 -15 9 -11 9 -15 1 -15 -7
0 -10 -4 -7 -9 3 -5 -2 -12 -11 -15 -12 -5 -13 -10 -5 -18 8 -8 6 -18 -6 -36
-14 -21 -14 -25 -2 -17 11 6 10 3 -3 -12 -9 -11 -15 -22 -11 -25 3 -3 -2 -22
-10 -42 -8 -20 -13 -36 -10 -36 3 0 0 -9 -6 -21 -9 -15 -8 -24 1 -35 10 -12 9
-13 -4 -9 -10 5 -15 1 -14 -12 1 -11 -4 -17 -13 -15 -11 3 -12 0 -4 -8 12 -12
7 -63 -5 -55 -4 2 -7 -13 -7 -35 1 -21 -2 -36 -6 -34 -12 8 -15 -21 -5 -41 9
-17 8 -18 -4 -8 -12 10 -15 9 -16 -5 -1 -9 -4 -30 -8 -47 -4 -16 -8 -38 -9
-47 0 -9 -5 -14 -10 -11 -5 4 -7 -1 -3 -10 3 -10 2 -17 -2 -17 -5 0 -8 -11 -6
-25 1 -14 -2 -25 -7 -25 -5 0 -6 -4 -3 -10 3 -6 1 -10 -5 -10 -6 0 -9 -4 -6
-8 8 -13 -15 -92 -28 -92 -6 0 -4 -5 4 -10 10 -6 11 -10 2 -10 -6 0 -11 -3
-11 -7 5 -29 -2 -53 -13 -47 -10 6 -10 4 0 -8 10 -13 10 -17 -3 -21 -8 -4 -15
-17 -15 -29 0 -46 -4 -68 -13 -68 -4 0 -5 -5 -2 -10 3 -6 2 -10 -4 -10 -5 0
-8 -8 -6 -17 1 -10 -4 -25 -12 -35 -10 -11 -11 -18 -3 -23 8 -5 8 -11 -1 -21
-6 -7 -9 -21 -5 -29 3 -9 2 -14 -3 -11 -5 3 -12 -1 -15 -10 -4 -10 -2 -13 7
-8 9 6 9 4 1 -7 -6 -8 -10 -22 -9 -32 2 -9 0 -15 -4 -12 -5 2 -13 -7 -20 -21
-6 -15 -7 -23 -1 -19 15 9 12 -7 -5 -29 -12 -16 -12 -22 -2 -28 9 -6 9 -8 0
-8 -7 0 -13 -11 -13 -25 0 -14 -4 -25 -8 -25 -4 0 -9 -14 -10 -31 -1 -17 -7
-39 -12 -49 -5 -9 -6 -20 -3 -24 3 -3 2 -6 -4 -6 -6 0 -9 -11 -8 -25 2 -14 -1
-25 -6 -25 -6 0 -8 -4 -4 -9 3 -5 1 -12 -4 -16 -5 -3 -10 -13 -10 -23 -1 -31
-13 -82 -20 -82 -4 0 -8 -12 -9 -26 -1 -15 -7 -32 -12 -39 -6 -7 -8 -20 -4
-29 3 -9 2 -16 -4 -16 -6 0 -9 -11 -8 -25 2 -14 -3 -30 -11 -36 -10 -9 -11
-15 -1 -26 9 -11 8 -13 -2 -11 -9 2 -15 -8 -16 -25 -2 -16 -8 -34 -13 -41 -7
-9 -7 -16 1 -24 9 -9 9 -12 0 -12 -7 0 -12 -9 -12 -20 0 -11 -5 -20 -11 -20
-8 0 -7 -6 2 -17 8 -9 9 -14 3 -10 -7 4 -14 -2 -17 -13 -3 -11 0 -20 6 -20 8
0 8 -3 2 -8 -17 -12 -41 -47 -28 -38 7 4 13 2 13 -3 0 -6 -5 -11 -12 -11 -6 0
-8 -3 -5 -7 4 -3 -1 -15 -10 -26 -10 -11 -13 -17 -6 -14 6 4 14 3 17 -2 3 -5
-1 -12 -10 -15 -8 -3 -13 -10 -9 -15 3 -5 1 -12 -4 -16 -5 -3 -10 -13 -9 -23
0 -9 -3 -28 -7 -42 -4 -14 -8 -33 -8 -42 -1 -10 -5 -18 -10 -18 -5 0 -7 -11
-5 -25 3 -15 1 -22 -5 -18 -6 4 -8 0 -4 -10 3 -8 0 -20 -7 -26 -7 -6 -12 -22
-10 -36 1 -14 -2 -25 -7 -25 -6 0 -8 -4 -5 -9 4 -5 0 -12 -6 -14 -10 -4 -9 -6
1 -6 11 -1 10 -6 -5 -23 -13 -14 -14 -19 -4 -14 8 4 6 0 -4 -8 -11 -9 -15 -16
-8 -16 6 0 9 -7 6 -15 -4 -8 -11 -12 -18 -8 -6 4 -6 0 2 -9 8 -10 9 -17 3 -20
-6 -1 -13 -21 -17 -43 -3 -22 -11 -43 -18 -47 -8 -5 -7 -8 3 -8 10 0 11 -3 2
-13 -6 -8 -8 -17 -4 -20 3 -4 1 -7 -5 -7 -6 0 -9 -7 -5 -17 4 -10 2 -14 -4
-10 -6 4 -9 -6 -8 -23 1 -17 -1 -30 -5 -30 -4 0 -7 -7 -8 -15 -1 -8 -3 -22 -4
-30 -1 -8 -5 -15 -9 -15 -5 0 -5 -7 -2 -17 4 -9 2 -14 -3 -10 -6 3 -10 -4 -11
-16 -1 -51 -3 -58 -15 -51 -10 6 -10 4 0 -8 10 -13 10 -17 -5 -22 -15 -6 -15
-8 -3 -16 12 -8 11 -10 -5 -10 -17 0 -17 -2 -5 -10 13 -9 13 -10 0 -10 -13 0
-13 -1 0 -10 8 -5 10 -10 4 -10 -6 0 -11 -6 -12 -12 -7 -56 -9 -63 -22 -60
-11 3 -11 0 -1 -12 10 -12 9 -16 -6 -25 -11 -6 -13 -11 -5 -11 8 0 10 -5 5
-12 -9 -15 -10 -20 -12 -49 0 -11 -5 -18 -10 -14 -6 3 -8 -3 -6 -15 2 -11 -1
-22 -6 -25 -5 -4 -7 -11 -4 -16 4 -5 3 -15 -2 -21 -8 -13 -13 -30 -17 -60 -1
-10 -5 -21 -9 -24 -4 -4 -7 -18 -7 -30 0 -13 -5 -26 -10 -29 -6 -4 -8 -11 -5
-16 4 -5 1 -9 -6 -9 -10 0 -10 -3 -2 -11 9 -9 8 -15 -2 -25 -8 -8 -12 -23 -10
-34 2 -11 -1 -20 -7 -20 -6 0 -8 -3 -5 -7 4 -3 1 -13 -6 -21 -10 -13 -9 -14 2
-7 11 6 11 3 -2 -14 -8 -13 -13 -30 -10 -39 4 -9 2 -13 -4 -9 -6 4 -9 -6 -8
-23 1 -17 -2 -30 -7 -30 -5 0 -7 -4 -3 -9 3 -6 -3 -14 -12 -20 -10 -6 -13 -11
-7 -11 6 0 11 -7 11 -15 0 -8 -5 -11 -10 -8 -6 4 -8 -3 -5 -15 4 -12 2 -22 -4
-22 -5 0 -7 -4 -4 -8 3 -5 -1 -21 -9 -36 -10 -18 -10 -24 -2 -19 9 5 9 3 0 -9
-7 -8 -16 -36 -19 -61 -4 -26 -13 -52 -20 -58 -11 -9 -11 -16 -2 -33 9 -18 9
-19 -3 -9 -11 9 -14 6 -15 -15 -2 -41 -14 -85 -27 -101 -10 -12 -9 -13 3 -6
12 7 13 6 4 -6 -17 -23 -35 -71 -24 -64 6 3 7 -1 4 -9 -3 -9 -11 -13 -17 -9
-6 3 -7 1 -3 -5 4 -6 2 -21 -5 -33 -8 -16 -8 -20 1 -14 7 5 6 -3 -3 -21 -8
-16 -13 -37 -12 -47 2 -9 -1 -15 -6 -11 -8 4 -14 -33 -10 -58 0 -5 -3 -8 -7
-8 -5 0 -9 -6 -10 -12 0 -7 -3 -22 -6 -33 -2 -11 -5 -26 -5 -33 -1 -8 -6 -10
-13 -6 -10 6 -10 4 0 -8 10 -13 10 -17 -2 -21 -9 -3 -12 -15 -9 -31 4 -20 1
-26 -13 -26 -16 0 -17 -2 -4 -10 13 -9 13 -11 0 -20 -12 -8 -12 -10 -1 -10 12
0 12 -3 -1 -17 -8 -10 -14 -32 -14 -50 1 -17 -2 -29 -6 -26 -5 2 -8 -3 -8 -11
0 -26 -1 -30 -12 -44 -8 -8 -7 -12 3 -12 9 0 10 -3 4 -8 -16 -12 -41 -47 -28
-38 9 5 11 2 7 -8 -3 -9 -10 -13 -15 -10 -5 3 -5 -6 1 -20 6 -17 6 -26 0 -26
-6 0 -10 -9 -10 -19 0 -11 -6 -22 -12 -24 -10 -4 -10 -6 0 -6 10 -1 9 -5 -3
-17 -11 -12 -13 -20 -5 -29 8 -9 6 -17 -6 -29 -9 -10 -14 -20 -11 -23 4 -3 0
-18 -8 -33 -11 -21 -11 -30 -2 -39 9 -10 9 -12 -3 -9 -8 2 -15 -5 -17 -17 -1
-11 -4 -29 -7 -40 -2 -11 -5 -25 -5 -32 -1 -6 -8 -19 -17 -27 -8 -9 -11 -16
-6 -16 5 0 9 -7 9 -15 0 -8 -4 -12 -8 -10 -3 3 -9 -4 -12 -15 -3 -11 -1 -20 5
-20 5 0 2 -7 -7 -16 -9 -9 -15 -26 -13 -38 1 -11 -2 -28 -7 -36 -5 -8 -11 -24
-12 -35 -2 -10 -9 -23 -16 -27 -9 -6 -8 -10 3 -18 8 -5 10 -10 5 -10 -6 0 -12
-12 -13 -27 -1 -15 -7 -30 -13 -34 -6 -3 -10 -9 -9 -13 1 -4 0 -20 -4 -37 -4
-21 -10 -28 -18 -23 -8 5 -8 2 1 -10 9 -10 11 -20 5 -24 -9 -7 -16 -27 -17
-49 0 -7 -4 -13 -8 -13 -4 0 -10 -7 -13 -16 -3 -8 -2 -12 4 -9 16 10 12 -12
-6 -29 -12 -12 -12 -16 -2 -16 8 0 9 -3 3 -8 -12 -9 -18 -29 -19 -64 0 -15 -4
-24 -8 -22 -9 5 -12 -9 -8 -40 1 -10 -3 -16 -8 -12 -5 3 -8 -6 -6 -19 1 -14
-2 -25 -7 -25 -6 0 -8 -4 -4 -9 3 -5 1 -12 -5 -16 -6 -4 -8 -10 -5 -15 3 -5 1
-18 -5 -29 -5 -11 -11 -31 -12 -45 -1 -15 -6 -26 -10 -26 -4 0 -4 -7 -1 -17 5
-12 3 -14 -7 -8 -9 5 -11 4 -6 -3 4 -6 2 -21 -5 -33 -9 -17 -8 -20 3 -14 10 6
11 5 1 -6 -7 -7 -13 -24 -13 -37 0 -13 -3 -21 -7 -19 -5 3 -9 -14 -11 -36 -1
-23 -7 -44 -12 -45 -6 -2 -10 -14 -10 -27 0 -13 -5 -27 -10 -30 -8 -5 -7 -12
2 -23 11 -13 11 -14 -1 -7 -11 6 -13 4 -8 -8 4 -10 2 -17 -4 -17 -6 0 -9 -9
-6 -20 3 -11 1 -18 -4 -14 -8 4 -14 -25 -10 -48 0 -5 -3 -8 -8 -8 -5 0 -7 -10
-3 -22 4 -16 2 -19 -9 -13 -12 8 -12 6 0 -8 11 -14 11 -18 -2 -23 -9 -3 -14
-14 -12 -25 2 -10 0 -19 -5 -19 -5 0 -7 -9 -5 -20 2 -11 -1 -22 -6 -25 -5 -4
-7 -10 -4 -15 3 -5 1 -12 -5 -15 -8 -5 -7 -12 2 -23 10 -12 10 -14 1 -8 -12 6
-18 -5 -14 -26 0 -5 -3 -8 -7 -8 -5 0 -8 -15 -7 -34 0 -19 -3 -32 -7 -30 -4 3
-8 -4 -8 -15 0 -12 -5 -21 -11 -21 -8 0 -8 -5 1 -15 9 -10 9 -15 1 -15 -6 0
-11 -6 -11 -14 0 -8 -6 -17 -12 -19 -10 -4 -9 -6 1 -6 11 -1 11 -4 0 -18 -12
-14 -12 -16 1 -9 13 7 13 6 0 -6 -8 -7 -15 -19 -16 -25 -1 -7 -2 -22 -2 -34
-1 -13 -6 -18 -14 -13 -10 6 -10 4 0 -8 11 -14 10 -18 -5 -27 -15 -9 -12 -10
18 -11 23 0 46 8 60 21 13 11 17 17 9 14 -8 -4 -1 5 15 20 16 14 30 31 30 36
0 5 4 9 9 8 4 0 19 17 32 38 13 21 24 34 24 28 1 -10 19 16 23 32 1 5 14 20
29 35 15 15 28 33 28 39 0 7 3 9 7 6 3 -4 17 10 29 31 13 20 24 33 24 29 0
-12 30 19 30 31 0 6 19 30 42 53 24 24 42 47 41 51 -2 4 2 8 9 8 6 0 9 3 6 6
-4 3 14 25 38 50 25 24 42 49 39 54 -3 6 -1 10 5 10 13 0 46 30 33 30 -4 0 0
5 10 11 9 5 17 17 17 25 0 8 5 12 10 9 6 -3 10 -2 10 4 0 5 13 23 30 39 16 16
27 32 24 35 -3 3 4 11 16 17 12 7 19 18 16 26 -3 7 -2 13 2 13 19 -3 33 2 28
10 -3 5 1 12 10 15 9 4 14 9 11 12 -7 7 43 60 54 57 4 -2 5 5 2 14 -4 11 -3
14 5 9 7 -4 12 -1 12 8 0 9 5 16 11 16 5 0 8 4 4 9 -3 5 3 12 13 15 9 3 26 22
36 41 11 19 25 35 33 35 8 0 11 4 8 10 -3 5 -1 10 4 10 6 0 11 6 11 14 0 7 8
20 18 27 16 13 16 13 2 -6 -14 -18 -14 -19 2 -7 10 8 16 17 15 22 -1 4 14 25
33 46 19 22 34 42 33 46 -2 4 6 12 17 18 12 6 17 16 14 22 -5 7 -1 9 9 5 11
-4 17 -1 17 9 0 8 4 12 10 9 5 -3 7 0 5 7 -6 14 29 58 45 58 6 0 9 6 7 13 -1
6 4 11 11 10 6 -2 12 4 12 12 0 8 14 28 31 45 18 16 28 30 23 30 -5 0 -1 5 9
11 9 6 14 15 11 21 -4 7 -2 8 4 4 8 -4 16 3 22 18 5 14 17 26 25 26 9 0 13 5
10 10 -3 6 -1 10 4 10 6 0 11 7 11 16 0 9 5 12 12 8 8 -5 9 -2 5 10 -4 9 -3
15 1 13 4 -3 13 1 20 9 7 8 9 14 5 14 -4 1 3 7 17 15 14 8 21 14 17 15 -8 0 7
21 35 47 9 9 14 21 11 26 -3 6 -1 7 6 3 6 -4 14 0 17 8 3 9 10 14 14 11 5 -3
6 5 2 17 -3 11 -1 19 4 16 5 -3 18 4 29 15 11 11 13 16 5 12 -8 -5 -3 4 13 20
15 15 27 32 27 36 0 5 7 9 17 9 9 0 13 3 10 6 -4 4 3 15 15 25 11 11 18 19 15
19 -4 0 9 17 28 37 19 20 35 41 35 45 0 4 8 8 18 9 10 0 12 3 5 6 -8 3 8 24
40 55 28 28 45 47 37 42 -8 -4 -4 6 10 23 14 17 29 28 34 25 5 -3 6 2 3 12 -4
10 -3 15 3 11 11 -7 32 29 22 40 -4 5 -2 5 4 2 11 -6 44 26 44 44 0 5 5 7 10
4 6 -3 10 -1 10 5 0 6 4 8 10 5 5 -3 8 0 5 7 -3 7 10 29 27 48 18 20 41 48 51
63 10 15 22 25 27 22 6 -4 7 1 3 11 -4 12 -3 15 5 10 7 -4 12 -1 12 6 0 8 9
20 20 28 11 8 20 20 20 27 0 7 9 17 20 23 11 6 20 15 20 20 0 5 16 26 35 46
19 19 35 39 35 43 0 4 18 26 40 49 22 22 40 45 40 51 0 5 7 12 16 15 8 3 12
10 9 16 -3 5 1 10 10 10 9 0 14 4 10 9 -3 5 4 12 15 16 11 3 20 12 20 18 1 15
35 57 47 57 5 0 16 12 24 28 7 15 24 37 36 49 13 12 23 27 23 33 0 6 5 8 12 4
8 -5 9 -2 5 9 -4 10 -2 16 6 14 7 -1 11 4 9 11 -1 8 7 16 18 19 13 3 19 11 16
19 -5 13 6 19 27 15 5 -1 6 3 3 8 -4 5 9 25 28 45 18 20 31 36 28 36 -3 0 5 8
16 19 12 10 22 21 22 25 0 4 11 17 25 30 13 13 22 26 18 29 -3 4 1 7 11 7 9 0
15 4 11 9 -3 6 3 14 12 20 10 6 15 11 12 11 -4 0 9 16 27 36 19 19 34 42 34
49 0 8 5 17 12 21 7 4 8 3 4 -4 -4 -7 -2 -12 3 -12 6 0 11 5 11 10 0 19 43 69
53 63 6 -3 7 -1 3 5 -4 7 -2 12 5 12 7 0 10 3 6 6 -9 9 25 44 36 37 6 -3 7 -2
4 4 -4 6 11 29 33 52 22 23 38 46 36 50 -3 4 9 16 25 26 16 11 29 24 29 28 0
5 7 15 15 24 8 8 13 19 9 24 -3 5 -2 9 3 8 20 -3 34 2 28 10 -3 6 3 14 12 20
10 6 14 11 9 11 -5 0 3 9 18 21 14 11 26 27 26 35 0 8 7 14 16 14 8 0 12 5 9
10 -3 6 -1 10 4 10 6 0 11 7 11 15 0 8 7 15 17 15 9 0 14 3 11 6 -8 7 42 60
54 56 5 -1 7 2 4 7 -8 13 4 42 15 35 5 -3 9 1 9 9 0 8 7 18 16 21 8 3 12 11 9
16 -4 6 -1 9 7 8 7 -2 12 3 11 10 -2 6 4 12 13 12 8 0 12 5 9 10 -3 6 1 13 9
16 9 3 16 12 16 20 0 8 6 13 13 11 6 -1 11 4 10 11 -2 6 2 12 7 12 6 0 10 4
10 10 0 9 12 23 102 122 21 23 34 46 31 52 -3 6 -3 8 2 4 9 -8 35 15 35 31 0
6 5 11 11 11 5 0 7 5 3 12 -5 7 -3 8 5 4 8 -5 14 0 18 13 3 11 9 18 14 15 5
-3 9 0 9 6 0 17 46 70 54 63 3 -4 6 1 6 10 0 9 8 21 18 26 9 6 13 11 8 11 -5
0 3 11 18 25 14 13 26 29 26 35 0 6 5 8 10 5 6 -3 10 1 10 10 0 8 7 18 15 21
8 4 13 10 10 14 -3 4 2 11 11 14 8 3 12 11 8 17 -4 7 -3 9 3 6 6 -4 18 4 26
17 9 13 30 39 46 57 17 18 31 39 31 45 0 7 7 15 16 18 8 3 12 10 9 16 -3 5 0
7 8 4 8 -3 18 0 23 7 5 8 3 10 -7 4 -16 -9 23 37 62 75 15 14 30 35 33 48 4
12 14 22 22 22 8 0 14 9 14 21 0 15 5 19 15 15 10 -3 17 3 21 19 3 14 20 36
36 50 16 14 27 25 24 25 -3 0 2 8 12 18 9 11 21 17 26 14 5 -3 6 0 2 6 -8 13
24 53 36 46 4 -3 8 1 8 9 0 7 9 23 20 35 11 12 20 26 20 32 0 6 5 8 10 5 6 -3
10 -2 10 3 0 4 10 19 23 32 12 14 22 27 22 30 0 12 33 39 39 33 3 -4 6 4 6 16
0 14 4 20 12 15 8 -5 9 -2 5 9 -6 15 3 22 25 18 5 0 7 2 7 7 -3 20 3 32 17 32
8 0 12 5 9 10 -3 6 -1 10 4 10 6 0 11 4 11 10 0 17 33 49 43 43 6 -3 7 -1 3 5
-3 6 4 18 16 26 12 9 18 16 13 16 -6 1 -1 8 10 18 12 9 24 25 28 35 4 11 12
15 18 11 8 -4 9 -3 5 4 -4 7 -2 12 3 12 6 0 11 5 11 10 0 6 11 21 25 34 13 13
22 26 18 29 -3 4 1 7 9 7 9 0 19 11 22 25 4 14 11 23 16 20 6 -3 10 -2 10 4 0
5 13 24 30 43 69 76 78 88 74 88 -3 0 9 13 26 30 17 17 28 30 25 30 -3 0 10
16 30 37 19 20 35 42 35 50 0 8 4 11 10 8 5 -3 15 5 21 19 7 14 16 23 20 20 5
-3 9 2 9 11 0 10 5 13 12 9 7 -4 8 -3 4 4 -7 12 23 54 35 47 4 -3 10 6 13 20
4 14 11 25 16 25 6 0 10 7 10 16 0 8 5 12 10 9 5 -3 10 -1 10 5 0 6 4 8 10 5
6 -4 7 1 3 11 -4 12 -3 15 5 10 7 -4 12 -2 12 6 0 11 31 50 100 126 11 12 19
22 16 22 -2 0 8 13 22 29 65 71 102 116 102 126 0 5 13 19 29 30 16 10 28 22
25 26 -2 4 4 12 13 18 10 6 14 11 10 11 -4 0 8 15 27 34 19 19 31 37 28 40 -3
3 0 6 6 6 7 0 12 7 12 16 0 8 5 12 10 9 6 -3 10 1 10 10 0 9 4 14 9 10 5 -3
12 3 16 14 3 11 12 22 20 25 8 3 15 15 15 27 0 15 5 19 15 15 13 -5 20 5 16
27 0 4 6 7 15 7 8 0 12 4 9 10 -3 5 1 10 9 10 10 0 13 6 9 17 -4 11 -3 14 5 9
7 -4 12 -3 12 2 0 16 37 52 45 44 5 -4 5 -2 2 5 -4 6 -1 18 7 26 8 8 12 18 8
22 -4 5 -2 5 4 2 6 -3 18 3 27 14 9 10 14 19 10 19 -4 0 2 7 13 15 10 8 16 15
12 15 -13 0 31 40 44 40 6 0 8 3 5 7 -4 3 2 12 13 20 11 8 20 22 20 32 0 11 9
21 21 24 12 3 18 10 15 15 -3 6 1 13 10 16 8 3 12 11 8 17 -4 7 -3 9 3 6 6 -4
17 1 24 10 12 14 12 16 -1 8 -13 -8 -13 -7 -1 8 7 9 20 17 28 17 9 0 13 6 9
15 -3 9 0 15 9 15 14 0 20 13 15 35 -1 5 2 7 6 3 4 -4 17 6 29 22 12 16 25 27
28 23 4 -3 7 1 7 10 0 10 5 17 11 17 5 0 8 4 5 8 -3 5 6 16 19 26 14 10 22 23
19 28 -3 4 -2 7 3 6 4 -2 9 0 11 4 6 19 46 57 54 52 5 -3 8 -2 7 3 -3 20 2 34
11 28 6 -3 10 1 10 9 0 9 5 16 12 16 6 0 9 3 5 6 -3 3 6 17 20 30 14 13 22 24
17 24 -5 1 1 6 13 13 12 7 23 17 24 22 2 14 23 42 32 44 4 0 7 3 7 6 -1 3 5
12 12 19 7 8 21 25 32 40 10 14 23 23 29 19 5 -3 7 -1 4 4 -4 6 4 22 18 34 13
13 25 29 25 34 0 12 30 39 51 48 10 4 11 6 1 6 -10 1 -10 4 0 15 7 8 16 12 21
9 4 -2 7 3 7 11 0 8 8 20 18 25 9 6 14 11 10 11 -12 0 31 40 43 40 5 0 7 -4 4
-10 -3 -5 1 -10 10 -10 10 0 30 -13 45 -30 15 -16 31 -30 34 -30 4 0 16 -9 28
-20 12 -10 26 -16 32 -13 6 4 5 -1 -3 -11 -8 -9 -10 -16 -5 -15 20 3 35 -1 30
-10 -3 -5 5 -12 19 -15 14 -4 25 -11 25 -17 0 -6 5 -7 10 -4 6 3 10 -1 10 -10
0 -9 9 -19 20 -22 11 -3 20 -10 20 -15 0 -5 4 -6 10 -3 6 3 10 -1 10 -9 0 -9
4 -16 10 -16 5 0 20 -11 34 -25 14 -14 29 -25 34 -25 6 0 13 -7 16 -16 3 -8
10 -12 16 -9 5 3 10 -1 10 -9 0 -9 7 -16 16 -16 8 0 13 -4 9 -9 -3 -5 3 -12
14 -16 25 -8 61 -39 61 -54 0 -6 3 -10 8 -9 14 3 72 -37 72 -50 0 -7 4 -11 8
-8 5 3 15 -4 22 -15 8 -10 18 -19 23 -19 4 0 21 -14 37 -30 16 -17 34 -30 40
-30 5 0 10 -5 10 -11 0 -5 5 -7 10 -4 6 3 10 -1 10 -9 0 -8 9 -18 20 -21 11
-4 18 -10 15 -15 -3 -5 6 -12 20 -16 13 -3 23 -9 20 -13 -2 -4 10 -16 28 -26
18 -10 36 -24 40 -32 4 -7 15 -13 22 -13 8 0 15 -6 15 -14 0 -8 9 -18 20 -21
11 -3 20 -11 20 -16 0 -5 6 -9 14 -9 8 0 24 -13 37 -30 13 -16 30 -30 37 -30
7 0 10 -5 7 -10 -3 -6 3 -10 14 -10 12 0 21 -4 21 -10 0 -16 43 -50 62 -50 11
0 16 -5 13 -11 -4 -6 2 -13 14 -16 12 -3 21 -11 21 -18 0 -7 13 -19 29 -26 16
-7 27 -17 25 -21 -3 -4 0 -8 5 -8 10 0 36 -21 92 -72 10 -10 19 -15 19 -12 0
9 26 -20 33 -36 3 -10 6 -10 6 -2 1 6 18 -6 40 -28 21 -22 41 -37 45 -33 3 3
6 1 6 -5 0 -7 8 -12 17 -12 9 0 14 -3 10 -6 -8 -8 18 -34 33 -34 6 0 8 -4 5
-10 -5 -9 7 -14 27 -11 4 0 10 -8 13 -19 4 -11 10 -18 15 -15 5 3 14 -4 20
-15 6 -11 15 -18 19 -16 11 7 51 -40 43 -50 -4 -5 1 -2 11 6 10 7 17 9 16 4
-3 -19 1 -35 9 -30 5 3 27 -12 50 -33 23 -21 44 -36 47 -33 3 3 5 -2 5 -11 0
-11 5 -14 17 -10 9 4 14 2 11 -3 -3 -5 6 -20 20 -34 14 -14 21 -18 16 -10 -5
9 -1 7 8 -3 10 -11 18 -16 18 -13 0 4 12 -5 28 -21 15 -15 26 -31 24 -36 -1
-5 2 -6 8 -2 5 3 10 1 10 -4 0 -6 5 -11 11 -11 16 0 69 -47 62 -54 -4 -3 1 -6
10 -6 9 0 17 -4 17 -10 0 -5 4 -10 10 -10 5 0 23 -14 38 -30 16 -17 33 -30 38
-30 5 0 16 -9 24 -20 8 -11 18 -20 22 -20 8 0 18 -8 81 -67 20 -18 40 -33 46
-33 6 0 11 -5 11 -10 0 -6 11 -16 25 -22 13 -6 27 -19 31 -30 3 -10 10 -16 15
-13 5 4 26 -11 46 -32 20 -21 33 -32 28 -24 -5 10 -4 12 3 7 7 -4 12 -14 12
-21 0 -8 6 -12 14 -9 7 3 16 -2 19 -10 4 -9 14 -16 24 -16 15 0 16 -2 3 -10
-13 -8 -12 -10 3 -10 9 0 17 -4 17 -10 0 -5 11 -12 25 -16 13 -3 23 -11 22
-18 -1 -6 4 -10 11 -9 6 2 12 -4 12 -12 0 -8 6 -15 14 -15 8 0 17 -7 20 -16 4
-9 9 -14 12 -11 8 8 34 -18 34 -32 0 -6 6 -10 13 -8 6 1 11 -3 10 -10 -2 -7 4
-10 12 -7 8 4 17 -1 21 -10 3 -9 10 -13 15 -10 5 3 9 1 9 -4 0 -5 9 -19 20
-32 11 -13 20 -20 20 -16 0 3 11 -1 25 -10 14 -9 22 -20 19 -25 -3 -5 2 -9 10
-9 8 0 20 -9 26 -20 6 -11 16 -20 23 -20 7 0 32 -18 56 -40 24 -21 49 -36 54
-33 6 4 8 0 4 -10 -5 -13 -1 -17 14 -17 15 0 19 -4 15 -16 -4 -11 -2 -15 7
-11 7 2 26 -8 41 -24 16 -16 33 -29 38 -29 5 0 6 -4 3 -10 -5 -9 9 -14 19 -7
2 1 16 -13 32 -30 16 -18 32 -33 37 -33 4 0 22 -13 40 -30 18 -16 36 -30 40
-30 5 0 5 -4 2 -10 -5 -9 0 -11 21 -10 3 1 18 -13 33 -29 16 -17 31 -27 35
-24 3 3 6 -1 6 -10 0 -10 6 -17 14 -17 8 0 21 -8 28 -18 7 -10 21 -21 31 -25
10 -4 15 -11 12 -17 -3 -5 3 -10 14 -10 12 0 21 -4 21 -9 0 -5 10 -13 21 -16
17 -6 19 -9 8 -16 -11 -7 -10 -9 4 -9 10 0 20 -7 23 -15 4 -8 11 -15 18 -15
17 0 76 -56 68 -65 -4 -5 -2 -5 5 -1 6 3 23 -5 37 -19 14 -14 30 -25 36 -25 6
0 8 -4 5 -10 -3 -5 1 -10 9 -10 8 0 20 -8 25 -17 6 -10 11 -14 11 -10 0 4 16
-7 34 -25 52 -49 63 -57 70 -51 3 4 6 0 6 -9 0 -8 12 -20 26 -26 14 -7 22 -17
18 -23 -4 -8 1 -9 16 -4 14 4 20 3 16 -3 -3 -5 8 -20 24 -32 16 -12 27 -27 23
-33 -3 -6 -1 -7 5 -3 7 4 23 -4 37 -18 14 -14 35 -31 48 -37 12 -7 28 -21 35
-31 7 -10 17 -16 22 -13 4 3 10 -5 13 -16 4 -15 11 -20 22 -15 9 3 13 2 10 -4
-3 -6 1 -10 10 -10 9 0 13 -4 10 -10 -3 -5 -1 -10 5 -10 6 0 24 -14 40 -30 17
-17 30 -28 30 -25 0 3 13 -8 29 -24 16 -16 32 -27 35 -24 3 4 6 1 6 -5 0 -6 8
-13 18 -16 11 -4 25 -17 32 -31 7 -13 17 -22 21 -19 5 3 24 -11 43 -30 19 -18
37 -31 40 -28 3 3 6 -2 6 -10 0 -9 11 -19 25 -22 14 -4 24 -10 21 -14 -2 -4 7
-12 20 -19 20 -9 24 -9 25 5 0 11 2 12 6 4 8 -21 21 -4 16 23 -3 13 -9 22 -14
19 -5 -3 -6 1 -3 9 3 8 -4 31 -16 51 -11 21 -15 34 -8 30 7 -5 5 4 -5 19 -20
31 -22 41 -4 31 6 -4 1 5 -12 19 -15 16 -19 27 -12 27 11 0 11 3 2 14 -7 8
-14 27 -17 43 -3 15 -9 30 -15 31 -5 2 -7 8 -4 12 3 5 -6 42 -21 82 -14 40
-27 80 -29 88 -2 8 -4 15 -5 15 -1 0 -4 11 -6 25 -3 14 -9 27 -14 28 -6 2 -10
8 -10 13 0 6 6 7 13 3 6 -4 4 2 -5 13 -20 21 -24 38 -8 28 16 -10 12 0 -10 25
-16 18 -17 25 -8 32 10 6 10 8 0 8 -7 0 -10 5 -7 10 3 6 1 10 -5 10 -6 0 -8 5
-5 10 3 6 0 10 -7 10 -9 0 -9 3 2 10 11 7 11 10 2 10 -7 0 -10 5 -7 10 3 6 1
10 -5 10 -6 0 -9 4 -5 9 3 5 -1 16 -9 24 -11 11 -12 17 -3 26 8 8 8 11 -2 11
-7 0 -10 4 -6 9 3 5 1 12 -5 16 -6 4 -8 11 -5 16 4 5 1 9 -4 9 -6 0 -11 5 -11
11 0 5 6 7 13 4 6 -4 5 -1 -4 7 -9 7 -14 19 -12 26 3 6 -1 12 -7 12 -9 0 -9 4
-2 13 7 8 7 17 -2 29 -7 10 -15 15 -18 13 -3 -3 -4 6 -3 20 2 14 -1 27 -6 31
-5 3 -7 10 -4 15 4 5 2 9 -3 9 -5 0 -9 6 -10 13 -4 53 -22 107 -36 107 -6 0
-4 5 4 10 9 6 10 10 3 10 -6 0 -17 25 -24 55 -7 30 -15 55 -18 55 -4 0 -8 12
-9 26 -1 15 -6 32 -12 39 -5 6 -7 15 -3 18 3 4 1 13 -5 20 -7 8 -9 17 -5 20 3
4 2 7 -4 7 -6 0 -14 7 -17 16 -4 10 -2 13 7 8 8 -6 8 -3 -1 9 -8 9 -11 21 -7
27 3 5 1 10 -5 10 -6 0 -8 4 -5 10 3 6 2 10 -4 10 -5 0 -8 11 -7 25 2 13 -1
22 -5 19 -5 -3 -9 7 -9 21 0 14 -3 24 -8 22 -4 -3 -8 6 -9 19 -5 51 -7 59 -21
73 -11 11 -11 16 -3 19 8 3 6 9 -6 19 -10 8 -13 12 -6 8 9 -4 8 3 -2 21 -8 15
-12 31 -9 36 3 5 0 16 -7 24 -12 15 -19 34 -21 62 -1 6 -5 12 -9 12 -4 0 -6 9
-4 20 2 11 -1 20 -7 20 -5 0 -8 7 -5 15 4 8 2 17 -4 20 -5 4 -7 11 -4 16 4 5
1 9 -5 9 -6 0 -10 6 -9 13 3 25 -1 48 -9 43 -4 -2 -8 3 -9 12 -1 18 -10 57
-13 57 -1 0 -3 9 -5 19 -2 10 -9 22 -15 26 -9 6 -9 9 1 13 10 4 10 6 2 6 -7 1
-13 6 -13 12 0 5 6 7 13 4 6 -4 3 1 -7 9 -11 9 -17 19 -13 22 3 4 -1 14 -10
22 -11 11 -12 17 -4 20 9 3 7 10 -6 25 -12 14 -13 18 -3 12 13 -8 13 -6 2 8
-8 9 -11 20 -8 26 3 5 0 11 -8 14 -7 3 -13 20 -14 38 0 17 -4 35 -9 38 -8 6
-15 27 -16 49 0 6 -4 12 -9 12 -5 0 -6 5 -3 10 3 6 0 10 -7 10 -9 0 -9 3 2 10
12 7 12 10 1 10 -7 0 -11 6 -7 15 3 8 1 15 -4 15 -6 0 -10 9 -10 21 0 13 -4
18 -12 13 -8 -5 -8 -1 1 10 11 13 12 19 3 25 -7 4 -13 19 -14 34 -1 15 -5 27
-9 27 -6 0 -13 25 -26 85 -2 10 -7 22 -11 25 -7 5 -13 24 -15 52 -1 10 -5 18
-9 18 -4 0 -8 10 -8 23 0 13 -6 29 -12 36 -11 11 -10 12 1 6 11 -6 11 -3 -2
14 -8 13 -13 30 -10 39 5 11 3 13 -7 7 -10 -6 -12 -3 -8 13 4 12 0 26 -8 33
-10 8 -11 15 -4 24 7 8 4 18 -8 31 -9 10 -19 30 -21 44 -1 14 -7 33 -12 42 -6
11 -5 18 4 21 7 3 4 6 -6 6 -10 1 -16 5 -12 10 3 5 2 12 -3 15 -4 2 -9 22 -10
43 -2 21 -10 43 -19 51 -13 9 -14 12 -2 12 10 1 9 3 -4 11 -9 6 -15 15 -12 20
4 5 0 23 -9 39 -8 17 -11 28 -6 25 4 -3 3 6 -3 19 -7 13 -16 22 -22 18 -5 -3
-4 1 3 10 9 12 10 18 2 23 -7 4 -10 16 -7 26 3 11 1 17 -4 13 -5 -3 -9 0 -9 5
0 18 0 19 -15 55 -18 42 -19 49 -4 41 6 -4 5 2 -2 13 -7 12 -17 18 -22 15 -5
-3 -4 5 3 17 8 15 8 20 1 16 -7 -5 -11 2 -11 18 0 14 -5 26 -11 26 -5 0 -7 5
-4 10 3 6 2 10 -3 10 -5 0 -8 13 -7 30 1 17 -2 27 -8 23 -6 -4 -8 0 -4 10 3 9
-1 18 -10 21 -12 5 -13 9 -3 21 9 10 9 15 1 15 -6 0 -11 9 -11 20 0 11 -5 20
-11 20 -5 0 -8 4 -4 9 3 5 1 13 -5 16 -6 4 -8 15 -5 26 4 11 2 19 -5 19 -6 0
-8 5 -5 10 4 6 -1 22 -10 37 -10 15 -12 22 -4 18 7 -5 6 1 -4 14 -8 13 -13 30
-10 37 3 8 0 14 -7 14 -6 0 -8 5 -5 10 3 6 2 10 -3 10 -6 0 -8 9 -5 20 3 11 1
20 -5 20 -5 0 -12 18 -16 40 -4 29 -10 39 -19 34 -8 -5 -7 -2 2 9 9 11 10 17
2 17 -6 0 -11 5 -11 11 0 5 6 7 13 3 6 -4 4 2 -6 13 -9 11 -14 23 -10 26 3 4
-2 7 -13 7 -16 0 -17 2 -4 10 10 7 11 13 5 18 -6 4 -11 16 -10 27 0 11 -4 23
-9 27 -5 3 -11 17 -13 29 -2 13 -9 27 -16 31 -9 6 -8 8 3 8 10 0 11 3 4 8 -7
4 -14 18 -15 32 -2 14 -8 28 -14 32 -5 4 -8 21 -7 39 3 23 0 29 -9 24 -9 -6
-11 -2 -7 13 4 12 2 22 -4 22 -5 0 -6 5 -3 10 3 6 2 10 -4 10 -5 0 -8 9 -6 20
2 11 0 20 -5 20 -4 0 -7 8 -6 18 2 9 -6 25 -17 35 -11 9 -15 17 -9 17 15 0 11
20 -6 38 -7 8 -10 18 -6 23 3 6 0 16 -6 24 -7 8 -9 15 -4 15 5 0 0 7 -10 15
-12 9 -15 15 -7 15 11 0 11 3 0 17 -12 15 -12 16 1 8 12 -7 12 -5 -1 11 -9 10
-14 25 -12 32 3 6 -1 12 -8 12 -7 0 -9 3 -6 7 4 3 1 13 -6 21 -9 13 -9 14 0 8
9 -5 11 -2 7 8 -3 9 -10 14 -14 11 -5 -3 -7 6 -5 20 1 14 -2 25 -7 25 -5 0 -6
5 -3 10 3 6 1 10 -4 10 -6 0 -11 14 -11 31 0 20 -4 28 -12 23 -6 -4 -8 -3 -4
4 3 6 -2 34 -13 61 -11 29 -14 48 -8 44 8 -4 8 -2 0 9 -7 8 -10 18 -6 21 3 4
2 7 -4 7 -5 0 -10 7 -11 15 -1 8 -3 22 -4 30 -1 8 -5 15 -10 15 -4 0 -8 14 -8
30 0 17 -4 30 -10 30 -5 0 -10 8 -10 17 0 24 -23 87 -35 95 -6 5 -5 8 3 8 7 0
11 4 8 9 -3 5 1 12 10 15 8 3 13 10 9 15 -3 6 0 13 7 18 24 15 68 75 62 84 -3
5 -1 8 5 7 5 -2 17 6 26 17 9 11 13 14 9 6 -4 -9 -3 -12 4 -7 6 4 9 13 5 21
-3 8 0 15 6 15 6 0 11 7 11 16 0 8 4 13 9 9 9 -5 27 32 23 48 -1 5 2 6 7 3 8
-5 16 5 20 29 2 6 9 14 17 18 8 5 12 12 9 17 -3 4 2 10 10 14 8 3 15 15 15 26
0 11 7 23 15 26 8 4 12 10 9 15 -3 5 0 9 6 9 6 0 9 4 5 9 -3 5 -1 12 4 16 15
9 41 65 30 65 -6 0 -7 5 -4 10 4 6 11 8 16 5 8 -6 13 11 12 42 -1 7 3 10 8 7
5 -3 12 3 15 13 3 10 12 34 21 53 8 19 17 46 20 60 2 13 8 27 13 30 5 3 12 17
14 30 2 14 6 27 7 30 1 3 3 10 3 15 1 6 7 20 14 33 7 12 10 22 6 22 -3 0 -1 6
5 13 6 8 8 17 4 20 -3 4 0 7 8 7 11 0 11 2 -1 10 -11 7 -11 10 -2 10 7 0 10 5
7 10 -3 6 -1 10 6 10 8 0 8 4 -1 15 -10 12 -10 15 0 15 7 0 10 7 7 15 -4 8 -2
17 4 21 6 3 8 12 5 20 -3 8 -1 14 5 14 6 0 9 7 6 15 -4 8 -2 17 3 20 5 3 7 14
5 25 -2 11 1 20 6 20 6 0 7 4 4 10 -3 5 -1 19 6 31 8 16 8 20 -1 14 -9 -6 -9
-3 -1 12 6 11 7 23 4 27 -3 3 -2 6 3 6 5 0 10 21 11 48 0 26 3 58 7 72 3 14 6
174 5 355 0 414 0 395 -8 395 -4 0 -6 20 -5 45 1 25 -1 43 -6 40 -5 -3 -7 4
-5 15 5 28 -4 51 -19 44 -6 -3 -2 2 8 10 17 14 17 16 4 16 -9 0 -20 5 -24 12
-4 7 -3 8 4 4 16 -10 15 12 -2 60 -7 22 -11 45 -9 51 3 7 -2 15 -10 19 -8 3
-13 15 -11 30 1 13 -1 24 -5 24 -7 0 -11 15 -12 52 0 9 -7 22 -15 28 -7 7 -11
16 -8 21 3 5 0 9 -5 9 -6 0 -11 8 -11 17 0 9 -8 25 -17 36 -11 12 -12 17 -4
12 9 -5 12 -4 8 2 -8 13 -30 66 -31 75 -1 4 -9 17 -18 28 -10 11 -18 25 -18
30 0 6 -4 10 -10 10 -5 0 -10 8 -10 17 0 9 -9 27 -21 39 -11 12 -21 31 -22 43
-1 11 -10 24 -20 27 -16 5 -17 8 -6 15 11 7 10 9 -4 9 -10 0 -15 5 -12 10 3 6
1 10 -5 10 -6 0 -8 5 -5 10 3 6 -1 10 -10 10 -9 0 -13 5 -10 10 3 6 1 10 -5
10 -6 0 -8 5 -5 10 3 6 -1 10 -10 10 -9 0 -13 5 -10 10 3 6 1 10 -4 10 -6 0
-11 4 -11 10 0 5 -10 19 -23 32 -12 13 -30 34 -40 48 -10 14 -15 18 -12 10 4
-8 -1 -6 -9 4 -9 11 -16 29 -16 40 0 17 -2 18 -10 6 -8 -13 -10 -12 -10 3 0
10 -3 16 -7 14 -5 -3 -14 1 -21 9 -7 8 -11 14 -8 14 3 0 -11 16 -30 35 -19 20
-40 32 -46 29 -6 -4 -8 -3 -4 4 3 6 -3 13 -14 17 -11 4 -18 11 -15 16 4 5 0 9
-7 9 -8 0 -21 8 -30 18 -26 27 -46 42 -58 42 -6 0 -9 4 -6 9 3 5 -1 12 -10 15
-8 3 -12 10 -9 16 3 6 -1 7 -9 4 -10 -4 -16 -1 -16 7 0 12 -2 12 -9 0 -7 -11
-10 -10 -15 5 -3 11 -24 28 -46 38 -22 11 -40 25 -40 33 0 7 -8 13 -19 13 -10
0 -30 11 -45 25 -15 14 -32 23 -37 20 -5 -4 -9 1 -9 9 0 8 -4 18 -10 21 -6 4
-7 -1 -4 -12 5 -17 5 -17 -9 -1 -8 10 -17 15 -20 12 -3 -3 -11 3 -18 14 -7 11
-18 18 -26 15 -7 -3 -16 2 -19 12 -4 9 -13 14 -20 11 -8 -3 -14 -2 -14 3 0 5
-11 12 -25 15 -14 4 -25 11 -25 17 0 6 -4 7 -10 4 -5 -3 -10 -1 -10 5 0 6 -5
8 -10 5 -6 -3 -13 1 -16 10 -6 13 -8 14 -15 3 -7 -10 -9 -10 -9 0 0 6 -7 12
-15 12 -8 0 -15 5 -15 11 0 5 -5 7 -10 4 -5 -3 -10 -1 -10 5 0 6 -4 9 -9 5 -5
-3 -15 1 -23 8 -7 7 -17 15 -23 17 -46 14 -65 23 -65 31 0 4 -6 6 -14 3 -8 -3
-17 0 -21 5 -3 6 -11 9 -16 6 -5 -4 -9 -1 -9 5 0 6 -5 8 -10 5 -5 -3 -10 -1
-10 4 0 6 -9 11 -20 11 -11 0 -20 4 -20 8 0 4 -12 9 -27 10 -15 1 -29 6 -32
10 -8 12 -68 32 -75 25 -3 -4 -6 1 -6 9 0 10 -7 15 -17 13 -10 -1 -27 2 -38 8
-11 6 -24 10 -28 9 -4 -1 -15 5 -24 14 -13 12 -17 13 -24 2 -6 -9 -9 -8 -9 7
0 17 -2 17 -10 5 -7 -11 -10 -11 -10 -2 0 7 -4 11 -9 8 -5 -4 -12 0 -14 6 -4
10 -7 10 -15 0 -7 -11 -11 -9 -15 9 -5 20 -8 21 -23 8 -12 -9 -15 -10 -10 -1
5 8 -1 12 -19 12 -17 0 -24 4 -19 12 4 7 3 8 -5 4 -16 -10 -53 3 -45 16 5 7 1
7 -12 0 -14 -8 -21 -6 -32 6 -9 12 -11 12 -6 2 7 -12 5 -13 -8 -3 -8 7 -18 10
-21 7 -3 -3 -19 3 -34 14 -22 16 -33 18 -47 10 -14 -8 -17 -7 -12 1 7 10 -14
16 -38 12 -5 -1 -12 3 -16 9 -4 6 -18 12 -31 13 -13 0 -27 5 -30 10 -4 5 -18
10 -33 10 -14 0 -26 3 -26 7 0 4 -7 11 -16 14 -8 3 -12 2 -9 -4 3 -6 1 -10 -4
-10 -6 0 -11 5 -11 11 0 6 -7 9 -15 6 -8 -4 -17 -2 -21 4 -3 6 -12 8 -20 5 -8
-3 -17 1 -21 10 -3 9 -13 14 -24 11 -11 -3 -19 0 -19 6 0 7 -5 5 -10 -3 -8
-13 -10 -12 -10 4 0 12 -5 16 -15 13 -8 -4 -17 -2 -20 4 -4 5 -11 7 -16 4 -5
-4 -9 -1 -9 5 0 6 -5 8 -10 5 -6 -3 -10 -1 -10 6 0 6 -8 9 -20 6 -10 -3 -20
-1 -22 4 -2 5 -14 11 -27 14 -13 2 -34 11 -47 20 -13 8 -24 13 -24 9 0 -4 -7
-1 -15 6 -8 6 -18 9 -24 6 -5 -3 -11 -1 -13 4 -2 6 -13 12 -25 13 -12 0 -19 5
-17 9 3 4 1 8 -5 8 -20 0 -119 50 -124 62 -4 10 -6 9 -6 -1 -1 -10 -6 -9 -18
5 -10 10 -25 20 -33 22 -8 2 -21 10 -27 19 -7 9 -13 13 -13 8 0 -5 -7 0 -16
11 -8 10 -12 12 -8 4 4 -8 -15 9 -44 37 -29 29 -52 59 -52 67 0 7 -7 16 -15
20 -8 3 -12 12 -9 21 3 8 1 15 -5 15 -6 0 -11 9 -11 20 0 11 -4 20 -9 20 -5 0
-8 18 -7 40 2 23 -2 44 -7 47 -6 4 -7 1 -2 -8 5 -8 4 -11 0 -6 -10 9 -15 48
-5 42 4 -2 5 14 3 35 -3 25 0 40 7 40 6 0 9 4 6 9 -4 5 -1 22 6 38 6 15 11 31
10 36 -1 4 2 7 7 7 5 0 11 9 14 21 4 13 10 18 18 13 7 -4 10 -3 6 2 -8 14 20
47 34 38 8 -4 10 -3 5 5 -4 6 0 14 8 17 9 3 13 10 10 15 -3 5 1 6 8 4 8 -3 23
3 33 13 28 25 81 45 97 36 7 -4 10 -4 6 1 -4 4 4 14 18 22 32 16 37 16 28 1
-4 -7 3 -3 15 9 16 17 26 20 44 14 14 -6 26 -4 34 4 6 7 31 12 56 11 25 -1 43
3 40 7 -3 5 5 8 18 7 40 -4 50 -1 44 13 -4 6 1 3 9 -7 9 -11 16 -15 16 -9 0 8
9 9 30 3 17 -5 28 -5 25 0 -3 5 4 8 15 7 11 -1 20 -6 20 -12 0 -6 3 -7 8 0 9
13 92 15 92 2 0 -5 6 -5 13 2 10 8 17 7 27 -2 10 -10 12 -8 6 8 -6 18 -5 19 7
3 11 -14 16 -15 26 -5 8 8 14 8 19 2 10 -14 52 -15 52 -1 0 8 2 8 8 0 4 -7 24
-15 45 -18 27 -4 36 -3 31 5 -4 8 0 8 15 0 11 -7 21 -8 21 -4 0 4 5 1 10 -7 8
-12 12 -13 19 -2 7 11 9 11 13 0 4 -8 20 -13 44 -12 22 1 47 -3 58 -8 14 -8
17 -7 10 4 -6 10 -5 11 7 1 12 -10 18 -10 29 0 10 9 11 9 6 0 -5 -9 0 -13 16
-13 13 0 30 -4 38 -10 9 -5 19 -5 27 2 9 7 13 7 13 -1 0 -7 5 -9 10 -6 6 3 10
1 10 -6 0 -8 4 -9 13 0 10 8 17 7 25 -1 7 -7 12 -8 12 -3 0 6 5 3 10 -5 6 -9
10 -11 10 -3 0 7 7 10 15 7 8 -4 13 -9 11 -13 -3 -4 11 -5 30 -3 24 3 34 0 34
-9 0 -11 2 -11 10 1 7 11 10 11 10 2 0 -7 6 -12 13 -11 25 3 38 -1 32 -11 -3
-5 -1 -10 4 -10 6 0 11 5 11 10 0 7 6 7 20 0 11 -6 20 -8 20 -4 0 3 7 1 15 -6
8 -7 15 -9 15 -4 0 5 5 2 10 -6 7 -10 10 -11 10 -2 0 9 8 9 31 -3 17 -9 33
-14 37 -11 3 3 11 1 18 -5 8 -6 20 -9 29 -6 8 4 21 -1 30 -9 11 -12 15 -12 15
-2 0 10 2 10 9 -1 5 -8 16 -11 25 -8 11 4 16 1 16 -11 0 -15 2 -15 10 -2 5 8
10 10 10 3 0 -6 9 -9 20 -6 11 3 20 1 20 -5 0 -6 9 -8 20 -5 12 3 20 0 20 -6
0 -7 4 -10 9 -7 4 3 16 -1 27 -8 10 -8 24 -12 30 -9 7 2 15 0 18 -5 3 -6 16
-8 28 -4 14 3 19 1 14 -6 -4 -7 1 -10 14 -7 11 2 20 0 20 -5 0 -4 8 -7 18 -6
9 2 20 -1 23 -5 3 -5 17 -10 32 -11 15 -1 27 -6 27 -10 0 -4 9 -8 20 -8 11 0
20 -5 20 -11 0 -8 4 -8 14 0 10 9 15 8 20 -4 3 -8 10 -15 16 -15 6 0 8 6 4 13
-4 6 1 5 12 -5 10 -9 30 -18 44 -20 14 -1 31 -9 38 -16 8 -7 17 -10 22 -7 5 3
11 -1 13 -7 4 -10 6 -10 6 0 1 8 8 6 23 -7 11 -11 25 -18 30 -15 4 3 20 -4 34
-15 14 -11 31 -18 39 -15 7 3 16 0 20 -5 3 -6 11 -9 16 -6 5 4 9 1 9 -5 0 -7
7 -10 15 -6 8 3 18 -2 23 -10 5 -9 15 -12 25 -8 13 5 16 15 13 40 -2 21 1 34
8 34 7 0 7 3 1 8 -5 4 -10 21 -10 37 0 17 5 33 10 37 7 5 7 8 0 8 -5 0 -10 16
-10 35 0 19 5 35 10 35 7 0 7 3 0 8 -5 4 -10 21 -10 37 0 17 5 33 10 37 7 5 7
8 0 8 -5 0 -10 14 -10 30 0 17 5 30 10 30 6 0 3 5 -5 10 -12 8 -12 10 -1 10
11 0 11 3 1 15 -10 12 -10 15 0 15 10 0 10 3 0 15 -10 12 -10 15 0 15 10 0 10
3 0 15 -9 11 -9 15 -1 15 7 0 9 5 6 11 -11 17 -11 79 -1 79 6 0 5 5 -2 12 -16
16 -15 31 1 22 8 -5 8 -2 -2 9 -10 13 -10 17 -1 17 10 0 10 3 0 15 -10 12 -10
15 0 15 10 0 10 3 0 15 -10 12 -10 15 0 15 10 0 10 3 0 15 -9 11 -9 15 -1 15
7 0 9 5 6 11 -11 17 -11 79 -1 79 6 0 5 5 -2 12 -16 16 -15 31 1 22 8 -5 8 -2
-2 9 -10 13 -10 17 -1 17 10 0 10 3 0 15 -10 12 -10 15 0 15 10 0 10 3 0 15
-10 12 -10 15 0 15 10 0 10 3 0 15 -9 11 -9 15 -1 15 9 0 9 5 0 21 -8 16 -8
23 1 29 9 6 9 9 -1 13 -12 5 -12 6 0 6 11 1 11 4 1 16 -10 12 -10 15 0 15 10
0 10 3 0 15 -10 12 -10 15 0 15 10 0 10 3 0 15 -9 11 -9 15 -1 15 7 0 9 5 6
11 -11 16 -11 79 -1 79 4 0 3 7 -4 15 -9 11 -9 15 -1 15 7 0 9 5 6 11 -11 16
-11 79 -1 79 4 0 3 7 -4 15 -9 11 -9 15 -1 15 7 0 9 5 6 11 -11 17 -11 79 -1
79 6 0 5 5 -2 12 -16 16 -15 31 1 22 8 -5 8 -2 -2 9 -10 13 -10 17 -1 17 10 0
10 3 0 15 -10 12 -10 15 0 15 10 0 10 3 0 15 -10 12 -10 15 0 15 10 0 10 3 0
15 -9 11 -9 15 -1 15 7 0 9 4 6 10 -12 20 -14 50 -2 50 8 0 8 3 2 8 -5 4 -10
21 -10 37 0 17 5 33 10 37 7 5 7 8 0 8 -5 0 -10 16 -10 35 0 19 5 35 10 35 7
0 7 3 0 8 -5 4 -10 21 -10 37 0 17 5 33 10 37 7 5 7 8 0 8 -5 0 -10 14 -10 30
0 17 5 30 10 30 6 0 3 5 -5 10 -12 8 -12 10 -1 10 11 0 11 3 1 15 -10 12 -10
15 0 15 10 0 10 3 0 15 -10 12 -10 15 0 15 10 0 10 3 0 15 -9 11 -9 15 -1 15
7 0 9 5 5 12 -4 7 -7 28 -6 48 1 19 -1 31 -5 25 -10 -13 -46 -13 -55 -1 -4 6
-13 4 -22 -3 -13 -11 -16 -11 -16 0 0 11 -2 11 -10 -1 -8 -12 -10 -12 -10 -1
0 11 -3 11 -15 1 -12 -10 -15 -10 -15 1 0 12 -2 12 -9 0 -6 -10 -10 -10 -16
-1 -6 9 -10 9 -16 -1 -7 -12 -9 -12 -9 0 0 11 -3 11 -15 1 -12 -10 -15 -10
-15 0 0 10 -3 10 -15 0 -12 -10 -15 -10 -15 1 0 11 -2 11 -10 -1 -7 -11 -10
-11 -10 -2 0 8 -5 10 -12 5 -20 -12 -38 -12 -38 -1 0 6 -6 5 -15 -2 -10 -8
-15 -9 -15 -1 0 7 -8 8 -25 1 -17 -7 -25 -6 -25 1 0 8 -5 7 -15 -1 -8 -7 -15
-8 -15 -4 0 10 -63 10 -79 -1 -6 -3 -11 -2 -11 3 0 5 -7 9 -15 9 -8 0 -15 -5
-15 -10 0 -5 -6 -4 -14 2 -11 9 -15 9 -19 -1 -4 -10 -6 -10 -6 1 -1 11 -4 11
-16 1 -12 -10 -15 -10 -15 0 0 10 -3 10 -14 1 -11 -9 -15 -9 -19 1 -4 10 -6
10 -6 -1 -1 -11 -4 -11 -16 -1 -11 9 -15 9 -15 1 0 -8 -6 -9 -18 -2 -11 6 -24
6 -35 0 -11 -7 -17 -6 -17 1 0 8 -6 8 -20 0 -15 -8 -20 -8 -20 1 0 8 -4 8 -15
-1 -10 -8 -15 -9 -15 -1 0 7 -8 8 -25 1 -17 -7 -25 -6 -25 1 0 8 -5 7 -15 -1
-8 -7 -15 -8 -15 -4 0 10 -63 10 -79 -1 -6 -3 -11 -2 -11 3 0 5 -7 9 -15 9 -8
0 -15 -5 -15 -10 0 -5 -6 -4 -14 2 -11 9 -15 9 -19 -1 -4 -10 -6 -10 -6 1 -1
11 -4 11 -16 1 -12 -10 -15 -10 -15 0 0 10 -3 10 -14 1 -11 -9 -15 -9 -19 1
-4 10 -6 10 -6 -1 -1 -11 -4 -11 -16 -1 -11 9 -15 9 -15 1 0 -8 -6 -9 -18 -2
-11 6 -24 6 -35 0 -11 -7 -17 -6 -17 1 0 8 -6 8 -20 0 -15 -8 -20 -8 -20 1 0
8 -4 8 -15 -1 -10 -8 -15 -9 -15 -1 0 7 -8 8 -25 1 -17 -7 -25 -6 -25 1 0 8
-5 7 -15 -1 -8 -7 -15 -8 -15 -4 0 10 -63 10 -79 -1 -6 -3 -11 -2 -11 3 0 5
-7 9 -15 9 -8 0 -15 -5 -15 -10 0 -5 -6 -4 -14 2 -11 9 -15 9 -19 -1 -4 -10
-6 -10 -6 1 -1 11 -4 11 -16 1 -12 -10 -15 -10 -15 0 0 10 -3 10 -14 1 -11 -9
-15 -9 -19 1 -4 10 -6 10 -6 -1 -1 -11 -4 -11 -16 -1 -11 9 -15 9 -15 1 0 -8
-6 -9 -18 -2 -11 6 -24 6 -35 0 -11 -7 -17 -6 -17 1 0 8 -6 8 -20 0 -15 -8
-20 -8 -20 1 0 8 -4 8 -15 -1 -10 -8 -15 -9 -15 -1 0 7 -8 8 -25 1 -17 -7 -25
-6 -25 1 0 8 -5 7 -15 -1 -8 -7 -15 -8 -15 -4 0 10 -63 10 -79 -1 -6 -3 -11
-2 -11 3 0 5 -7 9 -15 9 -8 0 -15 -5 -15 -10 0 -5 -6 -4 -14 2 -11 9 -15 9
-19 -1 -4 -10 -6 -10 -6 1 -1 11 -4 11 -16 1 -12 -10 -15 -10 -15 0 0 10 -3
10 -14 1 -11 -9 -15 -9 -19 1 -4 10 -6 10 -6 -1 -1 -11 -4 -11 -16 -1 -11 9
-15 9 -15 1 0 -8 -6 -9 -18 -2 -11 6 -24 6 -35 0 -11 -7 -17 -6 -17 1 0 8 -6
8 -20 0 -15 -8 -20 -8 -20 1 0 8 -4 8 -15 -1 -10 -8 -15 -9 -15 -1 0 7 -8 8
-25 1 -17 -7 -25 -6 -25 1 0 8 -5 7 -15 -1 -8 -7 -15 -8 -15 -4 0 10 -63 10
-79 -1 -6 -3 -11 -2 -11 3 0 5 -7 9 -15 9 -8 0 -15 -5 -15 -10 0 -5 -6 -4 -14
2 -11 9 -15 9 -19 -1 -4 -10 -6 -10 -6 1 -1 11 -4 11 -16 1 -12 -10 -15 -10
-15 0 0 10 -3 10 -14 1 -11 -9 -15 -9 -19 1 -4 10 -6 10 -6 -1 -1 -11 -4 -11
-16 -1 -11 9 -15 9 -15 1 0 -8 -6 -9 -18 -2 -11 6 -24 6 -35 0 -11 -7 -17 -6
-17 1 0 8 -6 8 -20 0 -15 -8 -20 -8 -20 1 0 8 -4 8 -15 -1 -10 -8 -15 -9 -15
-1 0 7 -8 8 -25 1 -17 -7 -25 -6 -25 1 0 8 -5 7 -15 -1 -8 -7 -15 -8 -15 -3 0
5 -9 9 -20 9 -11 0 -20 -4 -20 -9 0 -5 -6 -4 -14 2 -11 9 -15 9 -19 -1 -4 -10
-6 -10 -6 1 -1 11 -4 11 -16 1 -12 -10 -15 -10 -15 0 0 10 -3 10 -15 0 -12
-10 -15 -10 -15 1 0 11 -2 11 -10 -1 -8 -12 -10 -12 -10 -1 0 11 -3 11 -15 1
-12 -10 -15 -10 -15 1 0 12 -2 12 -9 0 -6 -10 -10 -10 -16 -1 -6 9 -10 9 -16
-1 -7 -12 -9 -12 -9 0 0 11 -3 11 -15 1 -12 -10 -15 -10 -15 0 0 10 -3 10 -15
0 -12 -10 -15 -10 -15 1 0 11 -2 11 -10 -1 -8 -12 -10 -12 -10 -1 0 10 -3 11
-14 2 -11 -9 -15 -9 -19 1 -4 10 -6 10 -6 -1 -1 -11 -4 -11 -16 -1 -12 10 -15
10 -15 -1 0 -12 -2 -12 -9 0 -6 9 -11 10 -15 2 -4 -6 -13 -8 -19 -4 -17 10
-47 11 -47 1 0 -5 -6 -6 -12 -1 -23 14 -61 15 -52 2 5 -8 3 -9 -7 -4 -18 12
-69 14 -75 3 -3 -5 -11 -5 -17 0 -11 7 -25 8 -44 2 -21 -6 -49 -4 -55 4 -4 6
-13 4 -22 -3 -13 -11 -16 -11 -16 0 0 11 -2 11 -10 -1 -8 -12 -10 -12 -10 -1
0 11 -3 11 -15 1 -12 -10 -15 -10 -15 1 0 12 -2 12 -9 0 -6 -10 -10 -10 -16
-1 -6 9 -10 9 -16 -1 -7 -12 -9 -12 -9 0 0 11 -3 11 -15 1 -12 -10 -15 -10
-15 0 0 10 -3 10 -15 0 -12 -10 -15 -10 -15 1 0 11 -2 11 -10 -1 -8 -12 -10
-12 -10 -1 0 11 -3 11 -15 1 -12 -10 -15 -10 -15 1 0 12 -2 12 -9 0 -6 -10
-10 -10 -16 -1 -6 9 -10 9 -16 -1 -7 -12 -9 -12 -9 0 0 11 -3 11 -15 1 -12
-10 -15 -10 -15 0 0 10 -3 10 -15 0 -12 -10 -15 -10 -15 1 0 11 -2 11 -10 -1
-8 -12 -10 -12 -10 -1 0 11 -3 11 -15 1 -12 -10 -15 -10 -15 1 0 12 -2 12 -9
0 -6 -10 -10 -10 -16 -1 -6 9 -10 9 -16 -1 -7 -12 -9 -12 -9 0 0 11 -3 11 -15
1 -12 -10 -15 -10 -15 0 0 10 -3 10 -15 0 -12 -10 -15 -10 -15 1 0 11 -2 11
-10 -1 -8 -12 -10 -12 -10 -1 0 10 -3 11 -13 3 -8 -7 -18 -7 -27 -2 -8 5 -21
5 -32 -1 -10 -5 -18 -6 -18 -1 0 5 -7 9 -15 9 -8 0 -15 -5 -15 -10 0 -5 -6 -4
-14 2 -11 9 -15 9 -19 -1 -4 -10 -6 -10 -6 1 -1 11 -4 11 -16 1 -12 -10 -15
-10 -15 0 0 10 -3 10 -14 1 -11 -9 -15 -9 -19 1 -4 10 -6 10 -6 -1 -1 -11 -4
-11 -16 -1 -11 9 -15 9 -15 1 0 -8 -6 -9 -18 -2 -11 6 -24 6 -35 0 -11 -7 -17
-6 -17 1 0 8 -6 8 -20 0 -15 -8 -20 -8 -20 1 0 8 -4 8 -15 -1 -10 -8 -15 -9
-15 -1 0 7 -8 8 -25 1 -17 -7 -25 -6 -25 1 0 8 -5 7 -15 -1 -8 -7 -15 -8 -15
-4 0 10 -63 10 -79 -1 -6 -3 -11 -2 -11 3 0 5 -7 9 -15 9 -8 0 -15 -5 -15 -10
0 -5 -6 -4 -14 2 -11 9 -15 9 -19 -1 -4 -10 -6 -10 -6 1 -1 11 -4 11 -16 1
-12 -10 -15 -10 -15 0 0 10 -3 10 -14 1 -11 -9 -15 -9 -19 1 -4 10 -6 10 -6
-1 -1 -11 -4 -11 -16 -1 -11 9 -15 9 -15 1 0 -8 -6 -9 -18 -2 -11 6 -24 6 -35
0 -11 -7 -17 -6 -17 1 0 8 -6 8 -20 0 -15 -8 -20 -8 -20 1 0 8 -4 8 -15 -1
-10 -8 -15 -9 -15 -1 0 7 -8 8 -25 1 -17 -7 -25 -6 -25 1 0 8 -5 7 -15 -1 -8
-7 -15 -8 -15 -4 0 10 -63 10 -79 -1 -6 -3 -11 -2 -11 3 0 5 -7 9 -15 9 -8 0
-15 -5 -15 -10 0 -5 -6 -4 -14 2 -11 9 -15 9 -19 -1 -4 -10 -6 -10 -6 1 -1 11
-4 11 -16 1 -12 -10 -15 -10 -15 0 0 10 -3 10 -15 0 -12 -10 -15 -10 -15 1 0
11 -2 11 -10 -1 -8 -12 -10 -12 -10 -1 0 10 -3 11 -13 3 -8 -7 -18 -7 -27 -2
-8 5 -21 5 -32 -1 -10 -5 -18 -6 -18 -1 0 9 -53 8 -69 -3 -6 -3 -11 -2 -11 3
0 5 -7 9 -15 9 -8 0 -15 -5 -15 -10 0 -5 -6 -4 -14 2 -11 9 -15 9 -19 -1 -4
-10 -6 -10 -6 1 -1 11 -4 11 -16 1 -12 -10 -15 -10 -15 0 0 10 -3 10 -14 1
-11 -9 -15 -9 -19 1 -4 10 -6 10 -6 -1 -1 -11 -4 -11 -16 -1 -11 9 -15 9 -15
1 0 -8 -6 -9 -18 -2 -11 6 -24 6 -35 0 -11 -7 -17 -6 -17 1 0 8 -6 8 -20 0
-15 -8 -20 -8 -20 1 0 8 -4 8 -15 -1 -10 -8 -15 -9 -15 -1 0 7 -8 8 -25 1 -17
-7 -25 -6 -25 1 0 8 -5 7 -15 -1 -8 -7 -15 -8 -15 -4 0 10 -63 10 -79 -1 -6
-3 -11 -2 -11 3 0 5 -7 9 -15 9 -8 0 -15 -5 -15 -10 0 -5 -6 -4 -14 2 -11 9
-15 9 -19 -1 -4 -10 -6 -10 -6 1 -1 11 -4 11 -16 1 -12 -10 -15 -10 -15 0 0
10 -3 10 -14 1 -11 -9 -15 -9 -19 1 -4 10 -6 10 -6 -1 -1 -11 -4 -11 -16 -1
-11 9 -15 9 -15 1 0 -8 -6 -9 -18 -2 -11 6 -24 6 -35 0 -11 -7 -17 -6 -17 1 0
8 -6 8 -20 0 -15 -8 -20 -8 -20 1 0 8 -4 8 -15 -1 -10 -8 -15 -9 -15 -1 0 7
-8 8 -25 1 -17 -7 -25 -6 -25 1 0 8 -5 7 -15 -1 -8 -7 -15 -8 -15 -4 0 10 -63
10 -79 -1 -6 -3 -11 -2 -11 3 0 5 -7 9 -15 9 -8 0 -15 -5 -15 -10 0 -5 -6 -4
-14 2 -11 9 -15 9 -19 -1 -4 -10 -6 -10 -6 1 -1 11 -4 11 -16 1 -12 -10 -15
-10 -15 0 0 10 -3 10 -15 0 -12 -10 -15 -10 -15 1 0 11 -2 11 -10 -1 -8 -12
-10 -12 -10 -1 0 10 -3 11 -13 3 -8 -7 -18 -7 -27 -2 -8 5 -21 5 -32 -1 -10
-5 -18 -6 -18 -1 0 9 -53 8 -69 -3 -6 -3 -11 -2 -11 3 0 5 -7 9 -15 9 -8 0
-15 -5 -15 -10 0 -5 -6 -4 -14 2 -11 9 -15 9 -19 -1 -4 -10 -6 -10 -6 1 -1 11
-4 11 -16 1 -12 -10 -15 -10 -15 0 0 10 -3 10 -14 1 -11 -9 -15 -9 -19 1 -4
10 -6 10 -6 -1 -1 -11 -4 -11 -16 -1 -11 9 -15 9 -15 1 0 -8 -6 -9 -18 -2 -11
6 -24 6 -35 0 -11 -7 -17 -6 -17 1 0 8 -6 8 -20 0 -15 -8 -20 -8 -20 1 0 8 -4
8 -15 -1 -10 -8 -15 -9 -15 -1 0 7 -8 8 -25 1 -17 -7 -25 -6 -25 1 0 8 -5 7
-15 -1 -8 -7 -15 -8 -15 -4 0 10 -63 10 -79 -1 -6 -3 -11 -2 -11 3 0 5 -7 9
-15 9 -8 0 -15 -5 -15 -10 0 -5 -6 -4 -14 2 -11 9 -15 9 -19 -1 -4 -10 -6 -10
-6 1 -1 11 -4 11 -16 1 -12 -10 -15 -10 -15 0 0 10 -3 10 -14 1 -11 -9 -15 -9
-19 1 -4 10 -6 10 -6 -1 -1 -11 -4 -11 -16 -1 -11 9 -15 9 -15 1 0 -8 -6 -9
-18 -2 -11 6 -24 6 -35 0 -11 -7 -17 -6 -17 1 0 8 -6 8 -20 0 -15 -8 -20 -8
-20 1 0 8 -4 8 -15 -1 -10 -8 -15 -9 -15 -1 0 7 -8 8 -25 1 -17 -7 -25 -6 -25
1 0 8 -5 7 -15 -1 -8 -7 -15 -8 -15 -4 0 10 -63 10 -79 -1 -6 -3 -11 -2 -11 3
0 5 -7 9 -15 9 -8 0 -15 -5 -15 -10 0 -5 -6 -4 -14 2 -11 9 -15 9 -19 -1 -4
-10 -6 -10 -6 1 -1 11 -4 11 -16 1 -12 -10 -15 -10 -15 0 0 10 -3 10 -15 0
-12 -10 -15 -10 -15 1 0 11 -2 11 -10 -1 -8 -12 -10 -12 -10 -1 0 10 -3 11
-13 3 -8 -7 -18 -7 -27 -2 -8 5 -21 5 -32 -1 -10 -5 -18 -6 -18 -1 0 9 -53 8
-69 -3 -6 -3 -11 -2 -11 3 0 5 -7 9 -15 9 -8 0 -15 -5 -15 -10 0 -5 -6 -4 -14
2 -11 9 -15 9 -19 -1 -4 -10 -6 -10 -6 1 -1 11 -4 11 -16 1 -12 -10 -15 -10
-15 0 0 10 -3 10 -14 1 -11 -9 -15 -9 -19 1 -4 10 -6 10 -6 -1 -1 -11 -4 -11
-16 -1 -11 9 -15 9 -15 1 0 -8 -6 -9 -18 -2 -11 6 -24 6 -35 0 -11 -7 -17 -6
-17 1 0 8 -6 8 -20 0 -15 -8 -20 -8 -20 1 0 8 -4 8 -15 -1 -10 -8 -15 -9 -15
-1 0 7 -8 8 -25 1 -17 -7 -25 -6 -25 1 0 8 -5 7 -15 -1 -8 -7 -15 -8 -15 -4 0
10 -63 10 -79 -1 -6 -3 -11 -2 -11 3 0 5 -7 9 -15 9 -8 0 -15 -5 -15 -10 0 -5
-6 -4 -14 2 -11 9 -15 9 -19 -1 -4 -10 -6 -10 -6 1 -1 11 -4 11 -16 1 -12 -10
-15 -10 -15 0 0 10 -3 10 -14 1 -11 -9 -15 -9 -19 1 -4 10 -6 10 -6 -1 -1 -11
-4 -11 -16 -1 -11 9 -15 9 -15 1 0 -8 -6 -9 -18 -2 -11 6 -24 6 -35 0 -11 -7
-17 -6 -17 1 0 8 -6 8 -20 0 -15 -8 -20 -8 -20 1 0 8 -4 8 -15 -1 -10 -8 -15
-9 -15 -1 0 7 -8 8 -25 1 -17 -7 -25 -6 -25 1 0 8 -5 7 -15 -1 -8 -7 -15 -8
-15 -4 0 10 -63 10 -79 -1 -6 -3 -11 -2 -11 3 0 5 -7 9 -15 9 -8 0 -15 -5 -15
-10 0 -5 -6 -4 -14 2 -11 9 -15 9 -19 -1 -4 -10 -6 -10 -6 1 -1 11 -4 11 -16
1 -12 -10 -15 -10 -15 0 0 10 -3 10 -15 0 -12 -10 -15 -10 -15 1 0 11 -2 11
-10 -1 -8 -12 -10 -12 -10 -1 0 10 -3 11 -13 3 -8 -7 -18 -7 -27 -2 -8 5 -21
5 -32 -1 -10 -5 -18 -6 -18 -1 0 9 -53 8 -69 -3 -6 -3 -11 -2 -11 3 0 5 -7 9
-15 9 -8 0 -15 -5 -15 -10 0 -5 -6 -4 -14 2 -11 9 -15 9 -19 -1 -4 -10 -6 -10
-6 1 -1 11 -4 11 -16 1 -12 -10 -15 -10 -15 0 0 10 -3 10 -14 1 -11 -9 -15 -9
-19 1 -4 10 -6 10 -6 -1 -1 -11 -4 -11 -16 -1 -11 9 -15 9 -15 1 0 -8 -6 -9
-18 -2 -11 6 -24 6 -35 0 -11 -7 -17 -6 -17 1 0 8 -6 8 -20 0 -15 -8 -20 -8
-20 1 0 8 -4 8 -15 -1 -10 -8 -15 -9 -15 -1 0 7 -8 8 -25 1 -17 -7 -25 -6 -25
1 0 8 -5 7 -15 -1 -8 -7 -15 -8 -15 -4 0 10 -63 10 -79 -1 -6 -3 -11 -2 -11 3
0 5 -7 9 -15 9 -8 0 -15 -5 -15 -10 0 -5 -6 -4 -14 2 -11 9 -15 9 -19 -1 -4
-10 -6 -10 -6 1 -1 11 -4 11 -16 1 -12 -10 -15 -10 -15 0 0 10 -3 10 -14 1
-11 -9 -15 -9 -19 1 -4 10 -6 10 -6 -1 -1 -11 -4 -11 -16 -1 -11 9 -15 9 -15
1 0 -8 -6 -9 -18 -2 -11 6 -24 6 -35 0 -11 -7 -17 -6 -17 1 0 8 -6 8 -20 0
-15 -8 -20 -8 -20 1 0 8 -4 8 -15 -1 -10 -8 -15 -9 -15 -1 0 7 -8 8 -25 1 -17
-7 -25 -6 -25 1 0 8 -5 7 -15 -1 -8 -7 -15 -8 -15 -4 0 10 -63 10 -79 -1 -6
-3 -11 -2 -11 3 0 5 -7 9 -15 9 -8 0 -15 -5 -15 -10 0 -5 -6 -4 -14 2 -11 9
-15 9 -19 -1 -4 -10 -6 -10 -6 1 -1 11 -4 11 -16 1 -12 -10 -15 -10 -15 0 0
10 -3 10 -15 0 -12 -10 -15 -10 -15 1 0 11 -2 11 -10 -1 -8 -12 -10 -12 -10
-1 0 10 -3 11 -13 3 -8 -7 -18 -7 -27 -2 -8 5 -21 5 -32 -1 -10 -5 -18 -6 -18
-1 0 9 -53 8 -69 -3 -6 -3 -11 -2 -11 3 0 5 -7 9 -15 9 -8 0 -15 -5 -15 -10 0
-5 -6 -4 -14 2 -11 9 -15 9 -19 -1 -4 -10 -6 -10 -6 1 -1 11 -4 11 -16 1 -12
-10 -15 -10 -15 0 0 10 -3 10 -14 1 -11 -9 -15 -9 -19 1 -4 10 -6 10 -6 -1 -1
-11 -4 -11 -16 -1 -11 9 -15 9 -15 1 0 -8 -6 -9 -18 -2 -11 6 -24 6 -35 0 -11
-7 -17 -6 -17 1 0 8 -6 8 -20 0 -15 -8 -20 -8 -20 1 0 8 -4 8 -15 -1 -10 -8
-15 -9 -15 -1 0 7 -8 8 -25 1 -17 -7 -25 -6 -25 1 0 8 -5 7 -15 -1 -8 -7 -15
-8 -15 -4 0 10 -63 10 -79 -1 -6 -3 -11 -2 -11 3 0 5 -7 9 -15 9 -8 0 -15 -5
-15 -10 0 -5 -6 -4 -14 2 -11 9 -15 9 -19 -1 -4 -10 -6 -10 -6 1 -1 11 -4 11
-16 1 -12 -10 -15 -10 -15 0 0 10 -3 10 -14 1 -11 -9 -15 -9 -19 1 -4 10 -6
10 -6 -1 -1 -11 -4 -11 -16 -1 -11 9 -15 9 -15 1 0 -8 -6 -9 -18 -2 -11 6 -24
6 -35 0 -11 -7 -17 -6 -17 1 0 8 -6 8 -20 0 -15 -8 -20 -8 -20 1 0 8 -4 8 -15
-1 -10 -8 -15 -9 -15 -1 0 7 -8 8 -25 1 -17 -7 -25 -6 -25 1 0 8 -5 7 -15 -1
-8 -7 -15 -8 -15 -4 0 10 -63 10 -79 -1 -6 -3 -11 -2 -11 3 0 5 -7 9 -15 9 -8
0 -15 -5 -15 -10 0 -5 -6 -4 -14 2 -11 9 -15 9 -19 -1 -4 -10 -6 -10 -6 1 -1
11 -4 11 -16 1 -12 -10 -15 -10 -15 0 0 10 -3 10 -15 0 -12 -10 -15 -10 -15 1
0 11 -2 11 -10 -1 -8 -12 -10 -12 -10 -1 0 10 -3 11 -13 3 -8 -7 -18 -7 -27
-2 -8 5 -21 5 -32 -1 -10 -5 -18 -6 -18 -1 0 9 -53 8 -69 -3 -6 -3 -11 -2 -11
3 0 5 -7 9 -15 9 -8 0 -15 -5 -15 -10 0 -5 -6 -4 -14 2 -11 9 -15 9 -19 -1 -4
-10 -6 -10 -6 1 -1 11 -4 11 -16 1 -12 -10 -15 -10 -15 0 0 10 -3 10 -14 1
-11 -9 -15 -9 -19 1 -4 10 -6 10 -6 -1 -1 -11 -4 -11 -16 -1 -11 9 -15 9 -15
1 0 -8 -6 -9 -18 -2 -11 6 -24 6 -35 0 -11 -7 -17 -6 -17 1 0 8 -6 8 -20 0
-15 -8 -20 -8 -20 1 0 8 -4 8 -15 -1 -10 -8 -15 -9 -15 -1 0 7 -8 8 -25 1 -17
-7 -25 -6 -25 1 0 8 -5 7 -15 -1 -8 -7 -15 -8 -15 -4 0 10 -63 10 -79 -1 -6
-3 -11 -2 -11 3 0 5 -7 9 -15 9 -8 0 -15 -5 -15 -10 0 -5 -6 -4 -14 2 -11 9
-15 9 -19 -1 -4 -10 -6 -10 -6 1 -1 11 -4 11 -16 1 -12 -10 -15 -10 -15 0 0
10 -3 10 -14 1 -11 -9 -15 -9 -19 1 -4 10 -6 10 -6 -1 -1 -11 -4 -11 -16 -1
-11 9 -15 9 -15 1 0 -8 -6 -9 -18 -2 -11 6 -24 6 -35 0 -11 -7 -17 -6 -17 1 0
8 -6 8 -20 0 -15 -8 -20 -8 -20 1 0 8 -4 8 -15 -1 -10 -8 -15 -9 -15 -1 0 7
-8 8 -25 1 -17 -7 -25 -6 -25 1 0 8 -5 7 -15 -1 -8 -7 -15 -8 -15 -4 0 10 -63
10 -79 -1 -6 -3 -11 -2 -11 3 0 5 -7 9 -15 9 -8 0 -15 -5 -15 -10 0 -5 -6 -4
-14 2 -11 9 -15 9 -19 -1 -4 -10 -6 -10 -6 1 -1 11 -4 11 -16 1 -12 -10 -15
-10 -15 0 0 10 -3 10 -15 0 -12 -10 -15 -10 -15 1 0 11 -2 11 -10 -1 -8 -12
-10 -12 -10 -1 0 10 -3 11 -13 3 -8 -7 -18 -7 -27 -2 -8 5 -21 5 -32 -1 -10
-5 -18 -6 -18 -1 0 9 -53 8 -69 -3 -6 -3 -11 -2 -11 3 0 5 -7 9 -15 9 -8 0
-15 -5 -15 -10 0 -5 -6 -4 -14 2 -11 9 -15 9 -19 -1 -4 -10 -6 -10 -6 1 -1 11
-4 11 -16 1 -12 -10 -15 -10 -15 0 0 10 -3 10 -14 1 -11 -9 -15 -9 -19 1 -4
10 -6 10 -6 -1 -1 -11 -4 -11 -16 -1 -11 9 -15 9 -15 1 0 -8 -6 -9 -18 -2 -11
6 -24 6 -35 0 -11 -7 -17 -6 -17 1 0 8 -6 8 -20 0 -15 -8 -20 -8 -20 1 0 8 -4
8 -15 -1 -10 -8 -15 -9 -15 -1 0 7 -8 8 -25 1 -17 -7 -25 -6 -25 1 0 8 -5 7
-15 -1 -8 -7 -15 -8 -15 -4 0 10 -63 10 -79 -1 -6 -3 -11 -2 -11 3 0 5 -7 9
-15 9 -8 0 -15 -5 -15 -10 0 -5 -7 -4 -15 3 -12 10 -15 10 -15 -1 0 -12 -2
-12 -9 0 -6 10 -10 10 -16 1 -6 -9 -10 -9 -16 1 -7 12 -9 12 -9 0 0 -10 -3
-11 -14 -2 -11 9 -16 9 -21 0 -6 -8 -10 -7 -16 2 -7 11 -9 11 -9 1 0 -9 -5
-10 -18 -3 -11 6 -24 6 -35 0 -11 -7 -17 -6 -17 1 0 7 -6 8 -18 1 -11 -6 -24
-6 -32 -1 -9 5 -19 5 -27 -2 -9 -7 -13 -7 -13 2 0 9 -4 9 -13 2 -8 -7 -18 -7
-27 -2 -9 5 -19 5 -27 -2 -7 -6 -13 -6 -13 -1 0 10 -30 12 -54 3z"/>
<path d="M15100 16841 c-1 -63 -1 -2810 0 -2883 0 -32 6 -53 18 -65 40 -40
112 -132 162 -208 60 -90 180 -329 196 -387 1 -5 2 -9 4 -10 1 -2 3 -10 5 -18
2 -8 16 -49 30 -90 15 -41 31 -91 35 -110 5 -19 20 -81 34 -136 14 -56 27
-117 30 -135 2 -19 7 -45 10 -59 3 -14 7 -41 10 -60 13 -97 18 -137 22 -160
22 -143 22 -652 0 -776 -2 -10 -7 -46 -10 -79 -11 -89 -18 -133 -42 -250 -3
-16 -7 -37 -8 -45 -2 -8 -8 -33 -14 -55 -6 -22 -13 -51 -16 -65 -2 -14 -6 -32
-9 -40 -51 -161 -63 -196 -70 -198 -4 -2 -5 -7 -2 -12 3 -5 -11 -43 -30 -85
-19 -43 -35 -81 -35 -85 0 -8 -117 -228 -131 -243 -41 -50 -89 -142 -89 -172
0 -14 5 -13 30 5 17 12 30 19 30 15 0 -6 18 7 52 40 11 11 18 14 14 8 -5 -9
-2 -11 8 -7 9 3 16 10 16 15 0 5 7 9 15 9 8 0 15 4 15 9 0 5 8 11 18 15 22 7
55 28 64 41 5 7 8 7 8 0 0 -6 3 -6 8 1 4 6 34 26 67 44 33 19 62 37 63 42 2 4
13 8 23 8 11 0 18 4 15 9 -5 8 26 22 40 18 3 -1 10 6 15 16 6 9 16 17 23 17 8
0 19 7 26 15 7 8 16 12 21 9 5 -3 9 2 9 10 0 9 6 13 14 10 9 -3 17 3 21 15 4
13 11 18 22 14 11 -4 14 -2 9 5 -4 7 -1 12 8 12 9 0 16 5 16 11 0 6 7 8 16 5
8 -3 13 -2 10 3 -3 5 8 14 24 21 16 7 28 15 26 19 -3 4 5 8 16 8 11 1 30 11
42 22 12 12 28 21 34 21 7 0 12 4 12 9 0 5 13 14 30 21 16 7 27 16 24 21 -3 5
2 6 10 3 9 -3 16 -2 16 4 0 6 19 20 43 32 77 40 87 47 79 55 -4 4 1 5 11 2 11
-4 17 -1 17 9 0 8 4 13 10 9 5 -3 19 4 30 15 11 11 25 18 29 15 5 -2 11 2 15
10 3 8 12 15 21 15 8 0 15 5 15 10 0 6 7 10 15 10 9 0 18 7 21 15 4 8 10 12
16 9 5 -3 18 4 29 17 10 12 19 18 19 14 0 -5 7 0 16 11 8 10 13 13 9 6 -8 -15
66 34 77 51 4 7 8 8 8 4 0 -4 20 6 45 23 25 17 45 27 45 23 0 -4 5 0 11 10 5
9 17 17 24 17 8 0 15 5 15 10 0 6 8 10 18 10 9 1 33 14 52 30 19 17 40 30 47
30 7 0 13 5 13 11 0 5 4 8 9 5 5 -3 12 1 15 10 3 8 10 12 16 9 5 -3 10 -1 10
4 0 6 7 11 15 11 9 0 18 7 21 15 4 8 10 12 15 9 5 -3 9 0 9 6 0 6 5 8 10 5 6
-3 10 -1 10 4 0 6 7 11 15 11 8 0 15 5 15 10 0 6 7 10 15 10 8 0 15 5 15 10 0
6 7 10 15 10 9 0 26 10 39 23 13 13 28 21 34 19 7 -2 12 1 12 7 0 6 6 11 13
11 7 0 23 9 35 20 12 11 24 20 28 20 4 0 15 6 23 14 9 8 22 16 30 18 8 2 22
10 32 18 30 26 44 35 58 38 7 1 20 9 28 17 8 8 21 15 29 15 9 0 12 5 8 12 -5
7 -2 9 7 6 15 -6 41 15 33 26 -2 3 -1 4 2 2 3 -3 22 5 42 16 21 12 48 27 62
35 14 7 21 13 15 14 -5 0 -1 4 10 8 11 5 22 8 25 7 11 -2 38 29 32 38 -3 5 0
6 6 2 7 -4 39 11 72 34 33 22 60 38 60 35 0 -3 12 6 27 20 15 14 33 25 39 25
6 0 17 7 24 15 7 8 16 12 21 9 5 -3 9 0 9 5 0 6 7 11 15 11 8 0 15 4 15 9 0 5
9 13 20 16 11 3 26 12 33 18 14 13 47 33 90 55 15 7 27 18 27 23 0 6 4 8 9 5
5 -4 11 -3 13 1 4 10 107 73 119 73 5 0 9 4 9 8 0 5 23 20 52 35 29 15 48 27
43 27 -6 0 5 8 22 16 18 9 30 21 26 27 -3 5 -1 7 5 4 11 -7 72 23 72 36 0 4 9
7 21 7 11 0 17 5 14 10 -3 6 -1 11 4 11 6 1 15 2 19 3 5 0 16 9 26 19 17 16
31 21 50 18 5 -1 6 5 2 14 -3 9 -2 14 3 10 5 -3 15 0 23 7 7 7 20 14 28 16 8
2 22 11 30 21 9 10 21 16 28 13 6 -2 15 3 18 12 3 9 10 13 15 10 5 -3 9 -1 9
4 0 9 37 25 52 23 5 -1 7 2 5 7 -1 4 2 8 7 9 5 1 12 6 15 11 3 6 13 12 21 14
8 2 21 11 28 21 7 9 18 15 23 12 5 -4 9 -1 9 5 0 6 4 9 9 5 6 -3 14 3 20 12 6
10 11 14 11 10 0 -5 7 -2 15 5 33 29 43 37 48 32 2 -2 10 2 17 11 7 8 19 15
26 15 8 0 14 4 14 10 0 5 11 12 24 16 14 3 27 12 30 21 3 8 10 11 16 8 5 -3
10 -1 10 5 0 6 4 9 8 6 5 -3 16 4 25 15 9 10 24 19 32 19 8 0 15 5 15 10 0 6
6 10 14 10 7 0 19 7 26 15 7 8 16 13 20 10 4 -3 10 2 14 10 3 8 12 15 21 15 8
0 15 5 15 11 0 5 5 7 10 4 6 -3 10 -2 10 3 0 8 93 64 105 62 3 0 16 11 29 25
13 13 26 22 29 18 4 -3 7 -1 7 6 0 7 5 9 10 6 6 -3 10 -1 10 4 0 6 7 11 15 11
8 0 15 5 15 11 0 5 5 7 10 4 6 -3 13 1 16 9 3 9 12 16 20 16 8 0 14 5 14 10 0
6 9 10 19 10 11 0 21 4 23 9 2 5 10 11 18 13 8 2 21 11 28 21 7 9 20 17 28 17
8 0 14 5 14 11 0 5 4 8 8 5 5 -3 18 4 30 14 12 11 26 20 32 20 5 0 10 4 10 10
0 5 7 7 15 4 8 -4 15 -1 15 5 0 6 16 19 35 28 19 9 32 20 29 25 -3 4 4 8 15 8
12 0 21 5 21 10 0 6 6 10 13 10 7 0 24 10 37 23 14 12 27 21 30 20 3 -1 44 23
91 53 47 30 92 54 98 54 7 0 9 4 6 10 -3 5 6 12 20 16 14 3 25 10 25 16 0 5 4
7 9 3 6 -3 14 3 20 12 6 10 11 14 11 9 0 -6 7 -1 16 10 8 10 13 12 9 4 -4 -8
3 -4 14 9 12 13 21 20 21 17 0 -4 20 7 45 24 25 17 45 28 45 24 0 -4 8 3 19
14 10 12 21 19 25 15 3 -3 6 -1 6 5 0 7 9 12 21 12 11 0 17 5 14 10 -3 6 1 10
9 10 9 0 16 5 16 11 0 5 5 7 10 4 6 -3 13 1 16 10 6 13 8 14 15 3 7 -10 9 -9
9 5 0 9 6 17 14 17 8 0 21 7 29 15 8 8 21 16 28 17 8 2 22 11 31 21 9 10 19
17 22 15 3 -2 13 4 23 12 10 9 22 18 28 20 5 3 9 9 7 13 -1 5 2 6 7 3 13 -8
42 4 35 15 -3 5 4 9 16 9 11 0 23 7 26 15 4 8 15 15 25 15 10 0 19 4 19 9 0 5
14 14 30 21 17 7 30 17 30 22 0 5 5 6 10 3 6 -3 10 1 10 9 0 10 6 13 15 10 8
-4 15 -1 15 6 0 6 5 8 10 5 6 -3 10 1 10 9 0 10 6 13 15 10 8 -4 15 -1 15 5 0
6 18 19 40 29 22 10 38 21 35 24 -3 3 8 8 25 12 17 3 29 10 26 15 -5 8 5 13
37 19 4 1 16 11 27 22 12 12 25 18 30 15 6 -4 10 1 10 9 0 9 3 15 8 14 4 0 18
4 32 10 14 6 21 11 15 11 -5 1 13 13 40 27 28 15 52 31 53 35 2 5 9 9 16 9 7
0 22 9 34 21 12 11 26 18 30 15 5 -3 16 3 25 12 27 29 45 41 51 35 3 -4 6 -1
6 5 0 7 8 12 18 12 9 0 29 11 44 25 15 14 32 25 38 25 5 0 10 4 10 10 0 5 7 7
15 4 8 -4 15 -1 15 5 0 6 11 16 25 23 13 6 22 15 18 21 -3 6 -1 7 5 3 7 -4 27
4 45 18 19 15 39 26 45 26 6 0 16 8 21 18 6 9 11 14 11 9 0 -4 11 0 25 9 14 9
23 19 21 23 -3 4 5 8 16 8 11 1 28 9 37 17 10 9 23 16 29 16 6 0 15 7 20 16 5
9 13 16 18 16 14 1 50 17 40 17 -14 1 27 30 42 31 7 0 22 9 34 20 12 10 24 17
28 15 5 -3 11 2 14 11 3 8 10 12 16 9 5 -3 10 -2 10 2 0 11 60 47 60 36 0 -4
4 -3 8 4 11 17 85 66 76 51 -4 -7 3 -3 15 10 12 12 29 22 37 22 8 0 13 4 10 9
-5 7 10 15 39 20 3 1 14 10 25 21 12 12 26 18 32 14 7 -4 8 -3 4 4 -4 7 -1 12
9 12 9 0 13 4 10 10 -3 6 1 7 9 4 9 -3 16 -1 16 6 0 6 5 8 10 5 6 -3 10 1 10
10 0 9 4 13 10 10 5 -3 20 3 32 14 12 12 26 21 30 21 5 0 35 17 66 38 31 21
69 44 84 51 15 8 25 19 21 24 -3 6 -1 7 4 4 6 -4 21 2 33 13 12 11 27 17 31
14 5 -3 9 0 9 5 0 6 5 11 10 11 6 0 20 9 32 20 12 10 25 17 30 14 4 -3 8 -1 8
5 0 5 20 20 45 32 25 12 45 27 45 31 0 5 5 6 10 3 6 -3 10 -2 10 4 0 5 9 13
20 16 12 4 17 11 14 18 -4 7 -4 9 1 5 9 -8 81 28 105 52 8 8 38 27 67 41 29
15 49 29 46 33 -4 3 1 6 11 6 9 0 19 7 22 15 4 8 10 13 14 10 5 -3 16 2 24 11
9 8 16 12 16 8 0 -4 11 3 24 15 15 14 30 20 37 16 8 -5 10 -4 5 3 -4 8 3 16
19 22 15 6 33 17 41 25 9 8 22 15 30 15 8 0 14 5 14 10 0 6 7 10 15 10 8 0 15
5 15 10 0 6 5 10 11 10 6 0 30 14 54 30 24 17 48 30 53 30 5 0 16 7 23 16 7 9
22 20 34 25 32 16 66 36 78 48 6 6 19 11 30 11 10 0 16 4 13 9 -6 9 18 23 30
18 3 -1 10 6 15 16 6 9 14 15 20 12 5 -4 9 -1 9 5 0 6 5 8 10 5 6 -3 10 1 10
10 0 9 5 13 10 10 6 -3 17 0 25 7 34 31 45 38 45 31 0 -4 7 1 15 11 8 11 15
16 15 12 0 -4 20 7 45 24 25 17 45 28 45 24 0 -4 8 2 18 12 9 10 24 20 32 22
8 2 17 7 20 10 9 13 120 82 130 82 5 0 10 5 10 11 0 5 5 7 10 4 6 -3 10 -1 10
4 0 6 6 11 14 11 8 0 16 4 18 9 2 5 10 11 18 13 8 2 22 11 31 20 9 10 19 15
22 11 4 -3 9 2 13 11 3 9 10 13 15 10 5 -3 9 0 9 5 0 6 5 11 11 11 6 0 29 13
52 28 23 16 50 32 60 35 10 4 16 10 13 15 -2 4 5 9 16 9 11 1 26 10 34 20 7
10 14 14 14 9 0 -6 7 -1 16 10 8 10 12 12 8 4 -4 -8 3 -5 15 8 12 12 28 22 36
22 8 0 15 5 15 11 0 5 4 8 9 5 5 -3 11 1 15 9 3 8 10 15 16 15 6 0 31 13 55
30 24 17 46 30 49 30 3 0 25 14 49 30 25 17 50 30 56 30 6 0 11 8 11 17 0 9 3
13 6 10 4 -4 19 2 34 13 15 11 30 17 34 13 3 -3 6 -1 6 6 0 7 3 10 8 8 10 -7
32 19 24 28 -4 4 -2 6 3 5 15 -3 55 11 55 20 0 4 8 11 18 14 21 8 55 28 74 44
8 6 19 8 24 4 5 -4 5 -3 1 3 -6 7 -1768 10 -5248 11 l-5239 1 0 -56z"/>
</g>
</svg>
